<svg xmlns="http://www.w3.org/2000/svg" xmlns:xlink="http://www.w3.org/1999/xlink" width="1200" height="800" preserveAspectRatio="xMidYMid meet" version="1.1" viewBox="0 0 1200 800"><defs><path id="b1Ydk2kran" d="M202.07 254.58L1002.41 254.58"/><path id="a3repR1a8t" d="M212.45 697.66C206.68 697.66 201.95 692.93 201.95 687.15C201.95 639.68 201.95 259.89 201.95 212.42C201.95 206.64 206.68 201.91 212.45 201.91C290.41 201.91 914.07 201.91 992.02 201.91C997.79 201.91 1002.53 206.64 1002.53 212.42C1002.53 259.89 1002.53 639.68 1002.53 687.15C1002.53 692.93 997.79 697.66 992.02 697.66C836.11 697.66 290.41 697.66 212.45 697.66Z"/><path id="e6jcnZAghg" d="M247.54 236.1C243.5 236.1 240.27 232.86 240.27 228.82C240.27 224.78 243.5 221.54 247.54 221.54C251.58 221.54 254.81 224.78 254.81 228.82C254.81 232.86 251.58 236.1 247.54 236.1Z"/><path id="b1AQPUcLfs" d="M275.93 236.1C271.89 236.1 268.66 232.86 268.66 228.82C268.66 224.78 271.89 221.54 275.93 221.54C279.97 221.54 283.2 224.78 283.2 228.82C283.2 232.86 279.97 236.1 275.93 236.1Z"/><path id="d3vwJ79sjl" d="M304.43 236.1C300.39 236.1 297.16 232.86 297.16 228.82C297.16 224.78 300.39 221.54 304.43 221.54C308.47 221.54 311.7 224.78 311.7 228.82C311.7 232.86 308.47 236.1 304.43 236.1Z"/><path id="a5BNnO0Gn8" d="M918.28 431.42C912.97 431.42 908.7 427.15 908.7 421.83C908.7 404.41 908.7 265.07 908.7 247.65C908.7 242.33 912.97 238.06 918.28 238.06C937.09 238.06 1087.58 238.06 1106.39 238.06C1111.7 238.06 1115.97 242.33 1115.97 247.65C1115.97 265.07 1115.97 404.41 1115.97 421.83C1115.97 427.15 1111.7 431.42 1106.39 431.42C1068.77 431.42 937.09 431.42 918.28 431.42Z"/><path id="c117y9dWQ4" d="M918.28 431.42C912.97 431.42 908.7 427.15 908.7 421.83C908.7 404.41 908.7 265.07 908.7 247.65C908.7 242.33 912.97 238.06 918.28 238.06C937.09 238.06 1087.58 238.06 1106.39 238.06C1111.7 238.06 1115.97 242.33 1115.97 247.65C1115.97 265.07 1115.97 404.41 1115.97 421.83C1115.97 427.15 1111.7 431.42 1106.39 431.42C1068.77 431.42 937.09 431.42 918.28 431.42Z"/><path id="f1hX35N8t5" d="M1061.5 381.17C1066.81 381.17 1071.19 376.9 1071.19 371.47C1071.19 363.46 1071.19 299.33 1071.19 291.31C1071.19 286 1066.92 281.61 1061.5 281.61C1051.72 281.61 973.52 281.61 963.75 281.61C958.44 281.61 954.06 285.88 954.06 291.31C954.06 299.33 954.06 363.46 954.06 371.47C954.06 376.78 958.33 381.17 963.75 381.17C983.3 381.17 1051.72 381.17 1061.5 381.17Z"/><path id="lliTA8qdl" d="M985.33 347.91L985.33 311.64L1039.34 311.64L1039.34 347.91L985.33 347.91Z"/><path id="a5lH4zShw" d="M985.33 311.64L1012.34 333.01L1039.34 311.64"/><path id="dSPQOYyi" d="M99.12 577.31C94.05 577.31 90.01 573.15 90.01 568.18C90.01 552.53 90.01 427.32 90.01 411.67C90.01 406.59 94.16 402.54 99.12 402.54C117.07 402.54 260.64 402.54 278.58 402.54C283.66 402.54 287.7 406.7 287.7 411.67C287.7 427.32 287.7 552.53 287.7 568.18C287.7 573.26 283.54 577.31 278.58 577.31C242.69 577.31 117.07 577.31 99.12 577.31Z"/><path id="bUX4ZwRmn" d="M99.12 577.31C94.05 577.31 90.01 573.15 90.01 568.18C90.01 552.53 90.01 427.32 90.01 411.67C90.01 406.59 94.16 402.54 99.12 402.54C117.07 402.54 260.64 402.54 278.58 402.54C283.66 402.54 287.7 406.7 287.7 411.67C287.7 427.32 287.7 552.53 287.7 568.18C287.7 573.26 283.54 577.31 278.58 577.31C242.69 577.31 117.07 577.31 99.12 577.31Z"/><path id="a2gQzA7cZ6" d="M141.94 543.58C136.05 543.58 131.32 538.84 131.32 532.95C131.32 523.95 131.32 451.97 131.32 442.97C131.32 437.08 136.05 432.34 141.94 432.34C151.24 432.34 225.66 432.34 234.96 432.34C240.84 432.34 245.58 437.08 245.58 442.97C245.58 451.97 245.58 523.95 245.58 532.95C245.58 538.84 240.84 543.58 234.96 543.58C216.35 543.58 151.24 543.58 141.94 543.58Z"/><path id="acQ3Kr0Ez" d="M204.38 487.09C204.26 482.94 203.8 478.78 202.76 474.5C203.94 474.5 213.35 474.5 214.53 474.5C216.61 478.2 217.99 482.47 218.22 487.09C215.45 487.09 205.76 487.09 204.38 487.09ZM202.41 503.38C203.57 499.22 204.14 495.06 204.38 490.79C205.77 490.79 216.94 490.79 218.34 490.79C217.99 495.3 216.72 499.57 214.65 503.38C214.62 503.38 203.63 503.38 202.41 503.38ZM201.26 507.19C202.33 507.19 210.92 507.19 211.99 507.19C208.3 511.81 203.11 515.28 197.34 517.01C198.84 513.78 200.11 510.43 201.26 507.19ZM185.33 517.93C183.6 514.35 181.99 510.77 180.83 507.19C182.51 507.19 195.89 507.19 197.57 507.19C196.3 510.77 194.8 514.35 193.07 517.93C191.8 518.05 190.53 518.17 189.26 518.17C187.87 518.17 186.6 518.05 185.33 517.93ZM177.14 507.19C178.18 510.43 179.56 513.78 181.18 517.01C175.29 515.28 170.21 511.81 166.52 507.19C166.5 507.19 176.07 507.19 177.14 507.19ZM160.17 490.79C161.57 490.79 172.74 490.79 174.14 490.79C174.37 494.95 175.06 499.11 176.1 503.38C175.29 503.38 171.25 503.38 163.98 503.38C161.6 498.07 160.33 493.87 160.17 490.79ZM175.64 474.5C174.6 478.66 174.02 482.82 174.02 487.09C172.64 487.09 161.56 487.09 160.17 487.09C160.52 482.59 161.79 478.32 163.87 474.5C166.22 474.5 174.46 474.5 175.64 474.5ZM176.68 470.69C175.65 470.69 167.43 470.69 166.41 470.69C170.1 466.19 175.06 462.72 180.72 460.99C179.1 464.22 177.72 467.46 176.68 470.69ZM189.14 459.72C190.64 459.72 192.26 459.83 193.76 460.07C195.72 463.65 197.34 467.11 198.49 470.69C196.64 470.69 181.87 470.69 180.02 470.69C181.18 467.11 182.68 463.65 184.76 460.07C186.26 459.83 187.76 459.72 189.37 459.72C189.33 459.72 189.19 459.72 189.14 459.72ZM198.72 503.38C196.82 503.38 181.58 503.38 179.68 503.38C178.52 499.22 177.72 495.06 177.49 490.79C179.06 490.79 186.9 490.79 201.03 490.79C200.26 496.33 199.49 500.53 198.72 503.38ZM178.75 474.39C180.82 474.39 197.35 474.39 199.41 474.39C200.45 478.55 200.91 482.7 200.91 486.98C199.33 486.98 191.4 486.98 177.14 486.98C177.52 481.43 178.06 477.24 178.75 474.39ZM201.61 470.69C200.57 467.46 199.3 464.22 197.57 460.99C203.22 462.72 208.18 466.19 211.88 470.69C209.82 470.69 202.63 470.69 201.61 470.69ZM166.29 511.81C178.87 524.4 199.41 524.4 211.99 511.81C224.57 499.22 224.57 478.66 211.99 466.07C199.41 453.48 178.87 453.48 166.29 466.07C153.71 478.66 153.71 499.22 166.29 511.81Z"/><path id="a5xOZGK2qB" d="M105.36 156.28C102.01 156.28 99.24 153.51 99.24 150.16C99.24 150.16 99.24 150.16 99.24 150.16C99.24 146.81 102.01 144.04 105.36 144.04C121.61 144.04 251.6 144.04 267.85 144.04C271.2 144.04 273.97 146.81 273.97 150.16C273.97 150.16 273.97 150.16 273.97 150.16C273.97 153.51 271.2 156.28 267.85 156.28C235.35 156.28 121.61 156.28 105.36 156.28Z"/><path id="b15Tfja90o" d="M1034.15 553.63C1030.8 553.63 1028.03 550.85 1028.03 547.5C1028.03 547.5 1028.03 547.5 1028.03 547.5C1028.03 544.15 1030.8 541.38 1034.15 541.38C1042.04 541.38 1105.19 541.38 1113.09 541.38C1116.43 541.38 1119.2 544.15 1119.2 547.5C1119.2 547.5 1119.2 547.5 1119.2 547.5C1119.2 550.85 1116.43 553.63 1113.09 553.63C1097.3 553.63 1042.04 553.63 1034.15 553.63Z"/><path id="b1nuz1KE7j" d="M1048.11 624.09C1045.57 624.09 1043.5 622.01 1043.5 619.47C1043.5 618.56 1043.5 611.36 1043.5 610.46C1043.5 607.91 1045.57 605.84 1048.11 605.84C1049.08 605.84 1056.84 605.84 1057.81 605.84C1060.34 605.84 1062.42 607.91 1062.42 610.46C1062.42 611.36 1062.42 618.56 1062.42 619.47C1062.42 622.01 1060.34 624.09 1057.81 624.09C1055.87 624.09 1049.08 624.09 1048.11 624.09Z"/><path id="cgUg4izx" d="M134.44 666.25C131.9 666.25 129.82 664.17 129.82 661.63C129.82 660.72 129.82 653.52 129.82 652.62C129.82 650.07 131.9 648 134.44 648C135.41 648 143.16 648 144.13 648C146.67 648 148.75 650.07 148.75 652.62C148.75 653.52 148.75 660.72 148.75 661.63C148.75 664.17 146.67 666.25 144.13 666.25C142.19 666.25 135.41 666.25 134.44 666.25Z"/><path id="a2PQccupWS" d="M721.4 150.04C718.74 150.04 716.55 147.85 716.55 145.19C716.55 141.28 716.55 109.95 716.55 106.04C716.55 103.38 718.74 101.18 721.4 101.18C737.44 101.18 865.77 101.18 881.81 101.18C884.47 101.18 886.66 103.38 886.66 106.04C886.66 109.95 886.66 141.28 886.66 145.19C886.66 147.85 884.47 150.04 881.81 150.04C849.73 150.04 737.44 150.04 721.4 150.04Z"/><path id="a1f4rgoHua" d="M739.75 118.63L853.88 118.63"/><path id="bjN5c2KFW" d="M739.75 130.29L786.25 130.29"/><path id="a3nweICS" d="M735.13 163.56L759.02 144.5L735.13 144.5L735.13 163.56Z"/><path id="a3VzYEh9YO" d="M410.03 152.93C402.53 152.93 396.41 146.81 396.41 139.3C396.41 132.07 396.41 74.22 396.41 66.99C396.41 61.22 401.03 56.6 406.8 56.6C414.9 56.6 479.71 56.6 487.81 56.6C493.58 56.6 498.2 61.22 498.2 66.99C498.2 74.55 498.2 134.98 498.2 142.54C498.2 148.31 493.58 152.93 487.81 152.93C487.79 152.93 417.8 152.93 410.03 152.93Z"/><path id="e15MomTarO" d="M468.54 117.24C468.08 117.7 467.73 118.05 467.27 118.51C466.58 119.09 465.89 119.9 465.19 120.59C464.16 121.63 463 122.09 461.5 122.09C461.27 122.09 461.15 122.09 461.04 122.09C457.92 121.86 455.04 120.59 452.96 119.55C447.07 116.66 441.88 112.62 437.61 107.42C434.15 103.15 431.73 99.11 430.11 94.95C429.07 92.41 428.61 90.44 428.84 88.48C428.96 87.32 429.3 86.28 430.34 85.48C430.69 85.13 433.46 82.36 433.8 82.01C434.15 81.66 434.61 81.32 435.3 81.32C435.88 81.32 436.34 81.66 436.8 82.01C437.38 82.59 438.07 83.28 438.65 83.86C439 84.2 439.23 84.55 439.69 84.9C439.98 85.19 442.29 87.5 442.57 87.79C442.92 88.13 443.27 88.71 443.27 89.29C443.27 89.86 442.8 90.44 442.57 90.79C442.23 91.14 442 91.37 441.65 91.71C440.73 92.64 439.92 93.45 439.11 94.25C439.11 94.25 439.11 94.25 439 94.37C437.96 95.41 438.19 96.33 438.42 96.91C438.42 96.92 438.42 97.01 438.42 97.03C439.11 98.87 440.27 100.49 441.88 102.57C444.77 106.15 447.88 109.04 451.34 111.12C451.81 111.46 452.27 111.58 452.73 111.81C453.19 112.04 453.42 112.16 453.77 112.27C453.78 112.28 453.87 112.38 453.88 112.39C454.92 112.85 455.96 112.74 456.77 111.93C457.13 111.57 459.99 108.7 460.35 108.35C460.69 108 461.15 107.65 461.85 107.65C462.31 107.65 462.89 108.11 463.23 108.35C463.81 108.92 468.43 113.54 469 114.12C469.93 115.05 469.93 116.08 469 117.12C468.91 117.15 468.63 117.22 468.54 117.24ZM470.96 111.81C467.5 108.35 465.58 106.42 465.19 106.04C464.16 104.88 462.77 104.3 461.5 104.3C460.12 104.3 458.85 104.88 457.81 105.92C457.47 106.26 454.8 108.93 454.46 109.27C454.23 109.15 454 109.04 453.88 108.92C453.42 108.69 453.19 108.58 452.85 108.46C449.73 106.5 446.96 103.96 444.31 100.61C443.04 99.11 442.11 97.6 441.65 96.33C442.46 95.64 443.15 94.83 443.96 94.02C444.31 93.68 444.54 93.45 444.88 93.1C446.04 91.94 446.61 90.56 446.61 89.29C446.61 87.9 446.04 86.63 444.88 85.48C444.59 85.19 442.29 82.88 442 82.59C441.65 82.24 441.42 82.01 441.07 81.55C440.5 80.97 439.69 80.16 439.11 79.58C438.07 78.54 436.69 77.97 435.42 77.97C434.03 77.97 432.88 78.43 431.73 79.58C431.37 79.94 428.51 82.81 428.15 83.17C426.76 84.55 425.96 86.28 425.72 88.25C425.49 91.37 426.3 94.25 427.11 96.1C428.73 100.84 431.38 105.11 435.19 109.62C439.8 115.05 445.34 119.43 451.69 122.55C454.11 123.71 457.35 125.09 461.04 125.33C461.27 125.33 461.5 125.33 461.73 125.33C464.27 125.33 466.23 124.4 467.96 122.67C467.96 122.67 467.96 122.67 468.08 122.55C468.54 121.98 469.23 121.28 469.93 120.71C470.39 120.24 470.85 119.78 471.31 119.32C473.5 117.01 473.5 113.89 471.31 111.81C471.26 111.81 471.15 111.81 470.96 111.81Z"/><path id="be9dBAzgw" d="M766.98 509.62L767.44 515.39C737.46 519.41 720.8 521.65 717.47 522.09C717.47 522.09 695.54 577.19 703.74 696.28C707.57 696.28 726.73 696.28 761.21 696.28L768.94 600.52L774.14 600.52L781.64 696.28C815.98 696.28 835.06 696.28 838.88 696.28C847.3 575.69 825.49 517.36 825.49 517.36C825.49 517.37 805.99 514.79 766.98 509.62Z"/><path id="dfdPLzxG0" d="M750.36 600.64L792.83 600.64"/><path id="a314vFLTvJ" d="M859.65 432.11C854.69 424.14 826.53 424.37 825.03 424.26C817.41 423.33 829.88 483.86 845.69 536.88C848.69 547.04 859.88 552.36 869.58 548.2C869.69 548.2 869.81 548.08 869.92 548.08C877.66 544.85 882.04 536.65 880.43 528.45C872.92 488.48 865.31 441.58 859.54 432.34C859.56 432.3 859.63 432.16 859.65 432.11Z"/><path id="aBza1f8yN" d="M830.46 467.92L827.11 450.82L864.27 441.58L866.35 453.94L830.46 467.92Z"/><path id="cxKu2qiUr" d="M857 509.96C857.81 508.93 870.39 473 870.39 473C870.58 474.01 871.54 479.05 873.27 488.13C861.88 503.38 856.46 510.66 857 509.96Z"/><path id="e176j0R9XD" d="M848.8 520.59C842.46 528.91 844.42 540.92 853.19 546.58C853.19 546.58 853.19 546.58 853.19 546.58C861.96 552.24 873.73 549.24 878.69 540.11C881.4 535.11 894.94 510.13 919.32 465.15L897.51 457.41C868.29 495.32 852.05 516.38 848.8 520.59Z"/><path id="a2ux64y55I" d="M897.16 448.28C900.62 437.66 911.93 431.88 922.43 435.35C933.05 438.81 938.82 450.13 935.36 460.64C931.9 471.27 920.59 477.05 910.09 473.58C899.47 470.11 893.7 458.79 897.16 448.28Z"/><path id="a2HST2ALzz" d="M926.7 432.69C916.89 428.65 904.89 429.57 897.16 448.28C899.41 447.89 910.69 445.93 930.97 442.39C934.67 438.54 933.24 435.31 926.7 432.69Z"/><path id="a5ZKtQp7vM" d="M961.44 411.32C962.6 411.78 962.94 413.17 962.36 414.32C959.68 419.35 938.16 459.55 935.47 464.57C934.9 465.73 933.4 466.3 932.24 465.84C930.2 464.95 913.86 457.84 911.82 456.95C910.66 456.48 910.32 455.1 910.89 453.94C913.58 448.92 935.09 408.72 937.78 403.7C938.36 402.54 939.86 401.97 941.01 402.43C945.1 404.21 959.4 410.43 961.44 411.32Z"/><path id="bGUKsu2Kv" d="M959.48 410.4C960.63 410.86 960.98 412.25 960.4 413.4C957.71 418.43 936.2 458.62 933.51 463.65C932.94 464.8 931.44 465.38 930.28 464.92C928.24 464.03 911.9 456.91 909.85 456.02C908.7 455.56 908.35 454.17 908.93 453.02C911.62 447.99 933.13 407.8 935.82 402.77C936.4 401.62 937.9 401.04 939.05 401.5C943.14 403.28 957.44 409.51 959.48 410.4Z"/><path id="b4m01CX2D4" d="M954.75 414.44L932.82 455.33L914.93 447.48L936.86 406.59L954.75 414.44Z"/><path id="c34V42O3T9" d="M914.93 447.48L936.86 406.59L954.75 414.44L914.93 447.48Z"/><path id="aKdBlb1EF" d="M920.82 430.96C920.82 430.96 925.32 431.88 929.47 434.19C931.32 435.23 932.24 437.31 931.67 439.27C931.67 439.27 931.67 439.27 931.67 439.27C931.2 441.12 929.7 442.51 927.74 442.74C926.68 442.88 918.19 443.99 917.13 444.13C917.13 444.13 911.59 453.71 904.32 454.75C904.75 453.64 906.95 448.05 910.89 438L920.59 431.07C920.71 431.01 920.79 430.97 920.82 430.96Z"/><path id="eEc3fuera" d="M873.16 450.36C870.51 450.77 857.28 452.81 833.46 456.48L825.49 522.32L714.82 522.32C701.66 449.35 694.35 408.8 692.89 400.69C692.89 400.69 717.36 365.58 762.94 352.64C764.43 352.64 771.9 352.64 785.33 352.64C835.49 359.65 864.77 392.22 873.16 450.36Z"/><path id="c1HanrvnUR" d="M343.67 378.75C343.67 378.75 326.48 376.9 324.74 399.89"/><path id="aqYBjtOhm" d="M792.6 323.42L757.17 323.42C757.17 341.79 757.17 351.99 757.17 354.03C755.33 354.61 752.32 355.65 747.59 357.84C749.44 358.94 758.67 364.45 775.29 374.36C792.26 364.45 801.68 358.94 803.57 357.84C803.57 357.84 799.06 355.18 792.6 353.57C792.6 353.58 792.6 343.53 792.6 323.42Z"/><path id="b1l4LOhax" d="M780.25 342.59C795.83 341.21 793.41 317.76 793.41 317.76C790.98 318.38 778.82 321.5 756.94 327.12C761.1 338.44 768.87 343.6 780.25 342.59Z"/><path id="a53qtFI5m1" d="M741.36 304.59C735.82 309.67 723.36 290.5 728.78 285.07C734.21 279.64 738.25 288.08 738.25 288.08C738.41 288.45 739.21 290.34 740.67 293.73L742.52 301.47L742.98 303.55L741.48 304.48C741.42 304.54 741.38 304.58 741.36 304.59Z"/><path id="a1EFqeA4GD" d="M731.32 292C731.32 292 735.48 290.15 739.28 296.16"/><path id="a2DKqSYqK" d="M821.22 285.65C816.38 279.87 811.53 287.84 811.53 287.84C811.34 288.21 810.37 290.06 808.64 293.39L806.22 300.9L805.64 302.86L807.03 303.9C819.8 295.66 824.53 289.58 821.22 285.65Z"/><path id="b3GtGTKpz7" d="M818.11 292.23C818.11 292.23 814.07 290.04 809.8 295.81"/><path id="e1D2X1qa52" d="M774.71 304.25C798.49 304.25 817.88 292.23 817.88 266.94C817.88 241.64 798.6 224.32 774.71 224.32C750.94 224.32 731.55 241.53 731.55 266.94C731.55 292.23 750.82 304.25 774.71 304.25Z"/><path id="d1yOG0QfIZ" d="M741.82 307.13C744.02 316.49 750.02 322.96 758.56 328.27C758.71 328.36 759.91 329.1 760.06 329.2C769.06 334.74 780.71 334.86 789.95 329.54C789.95 329.54 789.95 329.54 789.95 329.54C799.18 324.11 805.64 317.07 807.6 307.02C811.18 288.77 811.64 268.67 811.64 268.67C811.64 268.67 815.11 229.4 775.06 230.21C735.01 231.01 737.44 268.67 737.44 268.67C737.44 284.26 739.63 297.66 741.82 307.13Z"/><path id="b12biWlpzy" d="M772.17 291.08C772.17 294.34 772.17 296.15 772.17 296.51C772.17 296.85 772.29 297.08 772.41 297.43C772.87 298.59 774.14 299.05 775.29 298.82C775.46 298.77 776.31 298.54 777.83 298.12"/><path id="b2Lke1WqDe" d="M745.86 274.68C745.86 274.68 746.79 269.59 754.86 267.75C763.06 265.9 765.71 269.94 765.71 269.94C765.71 269.96 747.85 274.21 745.86 274.68Z"/><path id="cP05oxK2m" d="M802.64 274.68C802.64 274.68 801.72 269.59 793.87 267.75C786.02 265.9 783.37 269.94 783.37 269.94C783.37 269.96 800.71 274.21 802.64 274.68Z"/><path id="d2aS19Mi9c" d="M758.21 287.96C756.36 287.96 754.86 286.46 754.86 284.61C754.86 282.76 756.36 281.26 758.21 281.26C760.06 281.26 761.56 282.76 761.56 284.61C761.56 286.46 760.06 287.96 758.21 287.96Z"/><path id="b4Lc3gTGJg" d="M790.06 287.96C788.22 287.96 786.72 286.46 786.72 284.61C786.72 282.76 788.22 281.26 790.06 281.26C791.91 281.26 793.41 282.76 793.41 284.61C793.41 286.46 791.91 287.96 790.06 287.96Z"/><path id="d4liGh0saN" d="M787.41 305.05C787.41 305.05 775.98 319.03 761.56 305.05C766.73 305.05 784.82 305.05 787.41 305.05Z"/><path id="f25xUxK1vF" d="M756.71 300.32C748.86 300.32 742.4 293.97 742.4 286C742.4 278.14 748.75 271.67 756.71 271.67C764.56 271.67 771.02 278.03 771.02 286C771.02 293.85 764.67 300.32 756.71 300.32Z"/><path id="b24II9Od0S" d="M791.79 300.32C783.95 300.32 777.48 293.97 777.48 286C777.48 278.14 783.83 271.67 791.79 271.67C799.64 271.67 806.1 278.03 806.1 286C806.1 293.85 799.76 300.32 791.79 300.32Z"/><path id="e1tjTlrNUc" d="M771.02 286C771.02 286 774.37 282.88 777.48 286"/><path id="a2OVOTKR6" d="M742.52 286L738.01 285.88"/><path id="c14XCoVMqq" d="M806.1 286L810.61 285.88"/><path id="a29SoOM8ZI" d="M798.83 238.06C798.83 238.06 810.72 244.07 813.84 259.54C816.95 275.02 811.18 281.72 811.18 281.72C808.71 272.99 795.14 260.01 798.83 238.06Z"/><path id="aUWxOOWrm" d="M752.32 236.56C752.32 236.56 739.4 244.07 736.28 259.43C733.17 274.91 737.32 283.11 737.32 283.11C737.44 283.11 756.02 258.51 752.32 236.56Z"/><path id="aAGM66tcn" d="M732.94 265.44C732.94 265.44 741.59 232.4 768.83 228.82C768.83 228.82 800.33 225.01 809.8 246.72C794.43 250.47 789.25 269.25 732.94 265.44Z"/><path id="d6g4DknVl" d="M808.3 247.3C793.41 247.3 781.41 235.29 781.41 220.39C781.41 205.49 793.41 193.47 808.3 193.47C823.18 193.47 835.19 205.49 835.19 220.39C835.19 235.29 823.18 247.3 808.3 247.3Z"/><path id="d6qwBBdno" d="M480.54 517.47L430.57 510.77L431.03 505C395.93 509.71 376.42 512.33 372.52 512.85C372.52 512.85 350.25 572.8 359.48 696.51C363.24 696.51 382.05 696.51 415.92 696.51L423.76 596.02L428.96 596.02L437.15 696.51C471.15 696.51 490.04 696.51 493.81 696.51C502.93 574.07 480.43 517.59 480.43 517.59C480.44 517.57 480.48 517.53 480.54 517.47Z"/><path id="ezOVmwfId" d="M459.65 243.49C454.69 229.51 438.53 235.17 438.53 235.17C438.53 235.17 425.03 217.85 404.72 223.85C384.41 229.86 377.37 244.41 376.91 261.51C376.45 278.72 362.94 281.38 352.56 301.24C334.21 336.36 365.14 365.93 421.45 357.73C421.47 357.67 421.56 357.21 421.57 357.15C427.11 358.88 433.92 359.57 442.23 359.11C509.86 355.07 503.39 305.29 476.5 273.75C469.69 265.9 464.27 256.54 459.65 243.49Z"/><path id="b2I8FacerW" d="M454.35 299.86C459.89 304.94 472.35 285.76 466.92 280.34C461.5 274.91 457.46 283.34 457.46 283.34C457.3 283.72 456.49 285.6 455.04 289L453.19 296.74L452.73 298.82L454.23 299.74C454.29 299.8 454.33 299.84 454.35 299.86Z"/><path id="a1cOBIbQek" d="M464.39 287.15C464.39 287.15 460.23 285.3 456.42 291.31"/><path id="ahqwAblv" d="M374.48 280.91C379.33 275.14 384.18 283.11 384.18 283.11C384.37 283.48 385.33 285.33 387.06 288.65L389.49 296.16L390.06 298.12L388.68 299.16C375.91 290.92 371.18 284.84 374.48 280.91Z"/><path id="ehjf0wzbj" d="M377.6 287.5C377.6 287.5 381.64 285.3 385.91 291.08"/><path id="b10mJQF0H5" d="M420.99 299.51C397.22 299.51 377.83 287.5 377.83 262.2C377.83 236.91 397.1 219.58 420.99 219.58C444.77 219.58 464.16 236.79 464.16 262.2C464.16 287.5 444.88 299.51 420.99 299.51Z"/><path id="b14qMJoVQa" d="M438.65 364.66L438.65 318.68L403.11 318.68L403.11 364.66L438.65 364.66Z"/><path id="bhXi74EOS" d="M419.95 338.55C423.19 339.36 426.65 339.13 429.76 337.97C434.38 336.36 440.15 329.54 441.07 322.03C441.12 321.61 441.49 318.19 441.54 317.76C441.54 317.76 419.95 329.54 397.91 315.8C402.32 320.35 407.84 335.55 419.95 338.55Z"/><path id="ayaxRqYtp" d="M453.88 302.4C451.69 311.75 445.69 318.22 437.15 323.54C437 323.63 435.8 324.37 435.65 324.46C426.65 330 414.99 330.12 405.76 324.81C405.76 324.81 405.76 324.81 405.76 324.81C396.53 319.38 390.06 312.33 388.1 302.28C384.52 284.03 384.06 263.93 384.06 263.93C384.06 263.93 380.6 224.66 420.65 225.47C460.69 226.28 458.27 263.93 458.27 263.93C458.27 279.53 456.08 292.93 453.88 302.4Z"/><path id="iUagxoJ8z" d="M418.34 288.42C418.34 290.36 418.34 291.44 418.34 291.66C418.34 292 418.45 292.23 418.57 292.58C419.03 293.73 420.3 294.2 421.45 293.97C421.62 293.92 422.47 293.69 423.99 293.27"/><path id="a1Zvhu2aXa" d="M448 272.25C448 272.25 447.07 266.82 438.3 264.74C429.53 262.78 426.65 267.17 426.65 267.17C430.92 268.18 445.86 271.74 448 272.25Z"/><path id="eWoxCGoVt" d="M393.87 272.25C393.87 272.25 394.91 266.82 403.68 264.74C412.57 262.78 415.45 267.17 415.45 267.17C411.14 268.18 396.03 271.74 393.87 272.25Z"/><path id="dnV6XvQAW" d="M404.37 283.8C402.53 283.8 401.03 282.3 401.03 280.45C401.03 278.6 402.53 277.1 404.37 277.1C406.22 277.1 407.72 278.6 407.72 280.45C407.72 282.3 406.22 283.8 404.37 283.8Z"/><path id="d1sBNIGoTb" d="M436.23 283.8C434.38 283.8 432.88 282.3 432.88 280.45C432.88 278.6 434.38 277.1 436.23 277.1C438.07 277.1 439.57 278.6 439.57 280.45C439.57 282.3 438.07 283.8 436.23 283.8Z"/><path id="f2FSNOmPf5" d="M434.96 299.51C434.96 299.51 432.88 307.6 419.49 307.6C409.34 307.6 405.41 299.51 405.41 299.51C405.44 299.51 432.01 299.51 434.96 299.51Z"/><path id="b1UHbYY1EC" d="M396.87 233.32C396.87 233.32 384.99 239.33 381.87 254.81C378.75 270.29 384.52 276.99 384.52 276.99C386.99 268.25 400.57 255.27 396.87 233.32Z"/><path id="d4V1JyKbeB" d="M443.38 231.82C443.38 231.82 456.31 239.33 459.42 254.69C462.54 270.17 458.38 276.18 458.38 276.18C458.27 276.18 439.69 253.77 443.38 231.82Z"/><path id="ctUdoRbm8" d="M460.58 262.89C460.58 262.89 454.11 227.66 426.88 224.08C426.88 224.08 395.37 220.27 385.91 241.99C400.84 246.17 404.26 266.71 460.58 262.89Z"/><path id="elgO4RzHH" d="M367.21 421.83C365.94 422.06 341.13 424.37 337.44 431.88C326.82 453.6 319.09 624.55 319.09 624.55C320.11 624.66 325.23 625.19 334.44 626.16C365.75 487.86 376.68 419.75 367.21 421.83Z"/><path id="iMFB7XdnZ" d="M340.55 664.05C342.52 664.28 344.36 663.13 344.94 661.39C344.95 661.37 345.04 661.19 345.06 661.16C345.75 659.2 344.71 657.01 342.75 656.08C338.02 654 330.63 648.57 334.32 636.45C334.32 636.45 338.48 635.98 340.79 643.72C341.36 645.69 343.67 646.73 345.52 645.8C345.52 645.8 345.52 645.8 345.52 645.8C346.79 645.11 347.48 643.72 347.36 642.34C346.67 636.91 343.9 623.62 333.28 620.16C332.34 620.45 327.61 621.91 319.09 624.55C314.01 648.34 321.17 661.51 340.55 664.05Z"/><path id="arg2EIzbJ" d="M356.6 520.01C356.71 519.32 366.17 465.73 366.17 465.73C363.95 464.76 352.83 459.95 332.82 451.29L328.9 482.13C347.29 507.92 356.52 520.55 356.6 520.01Z"/><path id="biUwvkV8P" d="M324.74 445.63C327.39 446.04 340.62 448.08 364.44 451.75L372.41 517.59L483.08 517.59C496.24 444.61 503.55 404.07 505.01 395.96C505.01 395.96 489.43 369.62 443.84 356.69C441.27 356.72 428.38 356.92 405.18 357.26C359.94 358.03 333.13 387.49 324.74 445.63Z"/><path id="aaXLKzdIG" d="M421.22 380.6C460.81 380.6 470.96 366.97 470.96 366.97C470.96 366.97 447.65 353.91 420.53 349.64C420.53 349.64 396.3 353.91 371.48 367.54C371.48 367.66 381.18 380.6 421.22 380.6Z"/><path id="d2eGwqj9j" d="M507.32 696.39L597.91 696.39L599.99 643.95L507.32 643.95L507.32 696.39Z"/><path id="a2QNf4oU1" d="M693.93 696.39L603.22 696.39L601.26 643.95L693.93 643.95L693.93 696.39Z"/><path id="b2fdqFy0FS" d="M646.96 643.95L558.1 643.95L558.1 696.39L646.96 696.39L646.96 643.95Z"/><path id="a2vQeWWB91" d="M749.32 696.51C745.89 696.51 728.69 696.51 697.74 696.51L690.35 501.65L748.05 492.18C748.05 559.02 748.48 627.13 749.32 696.51Z"/><path id="cj8Act90I" d="M750.36 520.94C750.32 520.1 750.13 515.9 749.79 508.35L696.81 515.51L696.81 538.15C717.97 536.22 735.82 530.49 750.36 520.94Z"/><path id="e24EiToxgD" d="M645.92 356.46C645.92 356.46 746.79 381.87 765.13 510.08C765.13 510.08 715.74 531.56 666.23 522.32C666.97 519.47 670.66 505.18 677.31 479.47L645.8 356.57C645.87 356.51 645.9 356.47 645.92 356.46Z"/><path id="a1ocEPzpr" d="M419.61 498.53C405.83 537.41 398.17 559.01 396.64 563.33C396.64 563.33 339.52 483.86 313.9 422.41C315.93 421.56 326.13 417.33 344.48 409.7L419.61 498.53Z"/><path id="aBhChOfDm" d="M313.78 422.41C302.01 412.94 292.31 378.4 292.31 378.4C292.31 378.4 341.71 359.81 341.25 360.5C340.79 361.19 346.9 412.82 346.9 412.82C346.9 412.94 320.47 427.84 313.78 422.41Z"/><path id="a5ju9rejRN" d="M360.17 370.89C360.98 368.35 359.25 365.46 356.37 364.89C356.37 364.89 356.37 364.89 356.37 364.89C354.52 364.54 351.63 364.77 350.25 367.43C349.43 368.84 345.31 375.88 337.9 388.57L346.79 412.94C353.4 392.07 357.87 378.06 360.17 370.89Z"/><path id="c7pZiSuy1" d="M337.44 339.71C336.98 336.93 334.09 334.97 331.32 335.43C331.32 335.43 331.32 335.43 331.32 335.43C328.9 335.9 327.28 338.09 327.51 340.52C327.76 342.62 328.99 353.13 331.21 372.05L345.86 381.98C340.82 356.62 338.01 342.53 337.44 339.71Z"/><path id="a2zYVGzvTL" d="M317.59 336.13C316.67 333.47 313.67 331.97 311.01 332.89C311.01 332.89 311.01 332.89 311.01 332.89C308.7 333.7 307.43 336.01 308.01 338.32C308.58 340.65 311.43 352.27 316.55 373.2L329.13 366.27C322.21 348.19 318.36 338.14 317.59 336.13Z"/><path id="b1BIA58dh4" d="M302.01 345.6C300.62 342.83 297.28 341.55 294.62 342.71C294.62 342.71 294.62 342.71 294.62 342.71C292.08 343.87 290.93 346.75 291.97 349.41C292.75 351.28 296.63 360.64 303.62 377.48L316.55 375.28C307.83 357.47 302.99 347.58 302.01 345.6Z"/><path id="b1yjGj0C6p" d="M833.57 456.37L836.92 418.25"/><path id="a10xrNX4aF" d="M292.43 378.52C285.58 367.64 281.77 361.59 281.01 360.38C280.08 358.19 280.89 355.88 282.97 354.84C282.97 354.84 282.97 354.84 282.97 354.84C284.93 353.91 287.35 354.61 288.74 356.46C289.75 357.85 294.78 364.82 303.86 377.36L292.55 378.4L292.43 378.52Z"/><path id="f3MzCs1Dhv" d="M381.41 533.07C381.41 533.07 395.49 582.04 423.65 575.46C451.81 568.99 495.66 508.69 495.66 508.69C495.01 501.84 491.74 467.57 485.85 405.89L406.8 503.27L381.29 532.95C381.35 533.01 381.39 533.05 381.41 533.07Z"/><path id="d2JvYOgdi0" d="M431.38 473.12C431.38 473.12 458.04 513.43 480.77 527.64C481.77 526.38 486.73 520.11 495.66 508.81L438.19 464.34L431.26 473.23C431.33 473.17 431.36 473.13 431.38 473.12Z"/><path id="b2AYBKQXyf" d="M427.92 463.07C427.92 463.07 453.19 501.07 493.58 518.05C495.39 515.84 504.43 504.79 520.7 484.9L548.06 354.38C495.81 366.08 455.77 402.31 427.92 463.07Z"/><path id="b2wEDhZw4B" d="M498.2 390.41C498.6 408.17 500.6 496.96 504.2 656.77L697.05 656.77C696.7 497.79 696.51 409.47 696.47 391.8C696.47 391.8 672.12 368.01 645.8 356.34C623.42 346.52 569.75 342.71 548.06 353.8C517.47 369.62 508.17 383.09 498.2 390.41Z"/><path id="a14CEUTh0m" d="M696.81 523.25L699.35 436.16"/><path id="c4H79r81V8" d="M639.34 483.74C624.57 483.74 612.57 471.73 612.57 456.95C612.57 455.16 612.57 446.23 612.57 430.15L666.23 430.15C666.23 446.23 666.23 455.16 666.23 456.95C666.23 471.73 654.23 483.74 639.46 483.74C639.43 483.74 639.37 483.74 639.34 483.74Z"/><path id="anlpulwnD" d="M542.29 216.81C541.82 213.57 540.55 208.61 542.17 203.87C544.71 196.13 554.06 181.12 570.1 188.05C570.44 189.62 573.21 202.18 573.56 203.75C573.56 203.75 556.94 207.1 550.25 228.82C550.26 230.67 550.29 239.91 550.36 256.54C545.52 232.71 542.82 219.46 542.29 216.81Z"/><path id="cMCwqS3wr" d="M501.2 508.69L497.05 433.15"/><path id="a28e0vrT2h" d="M547.71 232.75C547.71 232.75 533.51 202.25 568.83 196.25C568.48 201.44 563.98 224.32 547.71 232.75Z"/><path id="b1gbYaalT4" d="M625.72 279.07L563.4 279.07L563.4 346.64C552.26 351.7 546.06 354.51 544.82 355.07C544.82 355.07 549.21 383.14 595.14 383.72C641.07 384.29 645.69 356.46 645.69 356.46C644.35 355.8 637.66 352.53 625.61 346.64L625.72 279.07Z"/><path id="b18xwJ94QW" d="M616.72 173.95C638.07 183.66 644.07 196.71 646.61 205.95C647.42 209.07 647.77 213.8 647.54 216.69C646.97 219.36 644.12 232.72 639 256.77L605.76 201.33L573.56 203.87L570.1 188.16C577.71 167.99 593.26 163.25 616.72 173.95Z"/><path id="b190rKGMhW" d="M651.81 253.31C660.46 256.54 656.54 277.68 643.61 280.34C643.61 280.34 639 281.38 635.3 278.14C635.3 278.14 638.53 262.55 639 256.66C641.56 255.99 643.15 249.96 651.81 253.31Z"/><path id="d6OetF5ky5" d="M650.19 260.7C650.19 260.7 642.92 258.27 637.84 269.02"/><path id="gGZL77VS5" d="M537.55 253.31C528.9 256.54 532.82 277.68 545.75 280.34C545.75 280.34 550.36 281.38 554.06 278.14C554.06 278.14 550.83 262.55 550.36 256.66C547.8 255.99 546.21 249.96 537.55 253.31Z"/><path id="cNhaVLII7" d="M539.28 260.7C539.28 260.7 546.56 258.27 551.63 269.02"/><path id="aqvKqHST" d="M630.92 291.66C623.65 306.44 611.53 314.41 595.6 314.87C579.79 315.33 567.91 309.21 558.44 290.04C548.98 270.86 549.44 236.91 549.44 236.91C549.44 236.91 549.44 191.63 594.22 191.63C641.3 191.63 639.92 236.67 639.92 236.67C639.92 249.38 638.65 275.95 630.92 291.66Z"/><path id="b5z1P4eXo" d="M592.26 329.08C618.8 332.55 625.84 300.2 625.84 300.2C625.84 300.2 614.18 314.87 595.6 314.87C574.95 314.87 563.98 299.51 563.98 299.51C569.64 305.42 569.17 325.96 592.26 329.08Z"/><path id="bFgN2GOuo" d="M591.45 255.5C591.45 261.81 591.45 265.31 591.45 266.01C591.45 266.48 591.56 266.94 591.68 267.28C592.26 268.79 594.1 269.59 595.72 269.13C595.95 269.07 597.1 268.76 599.18 268.21"/><path id="d2i15AI6oX" d="M574.14 254.58C571.83 254.58 570.1 252.73 570.1 250.54C570.1 248.34 571.94 246.49 574.14 246.49C576.33 246.49 578.18 248.34 578.18 250.54C578.18 252.85 576.33 254.58 574.14 254.58Z"/><path id="c4VtgOQA2V" d="M612.34 254.58C610.03 254.58 608.3 252.73 608.3 250.54C608.3 248.34 610.14 246.49 612.34 246.49C614.53 246.49 616.38 248.34 616.38 250.54C616.38 252.85 614.53 254.58 612.34 254.58Z"/><path id="b6ir7VzugW" d="M629.3 237.25C629.3 237.25 628.03 229.51 616.84 226.74C605.64 223.97 601.95 230.09 601.95 230.09C601.95 230.11 626.57 236.55 629.3 237.25Z"/><path id="b4OXruKWH" d="M557.52 237.25C557.52 237.25 558.79 229.51 569.98 226.74C581.18 223.97 584.87 230.09 584.87 230.09C584.87 230.11 560.25 236.55 557.52 237.25Z"/><path id="a5btiV3AhR" d="M579.45 276.52C579.45 276.52 583.49 279.64 594.1 279.64C603.8 279.64 609.8 276.52 609.8 276.52"/><path id="b8km8tA5y" d="M573.1 269.02C563.52 269.02 555.79 261.28 555.79 251.69C555.79 242.1 563.52 234.36 573.1 234.36C582.68 234.36 590.41 242.1 590.41 251.69C590.41 261.28 582.68 269.02 573.1 269.02Z"/><path id="f1dK6XQKcv" d="M615.57 269.02C605.99 269.02 598.26 261.28 598.26 251.69C598.26 242.1 605.99 234.36 615.57 234.36C625.15 234.36 632.88 242.1 632.88 251.69C632.88 261.28 625.15 269.02 615.57 269.02Z"/><path id="aYqv53aHu" d="M590.41 251.69C590.41 251.69 594.56 247.88 598.26 251.69"/><path id="j6tTu7dIsm" d="M555.67 251.69L549.9 251.57"/><path id="a3eCwcieZS" d="M632.88 251.69L639.34 251.57"/><path id="a2aaazjOf" d="M609.8 220.16C635.3 219.69 641.42 238.18 641.42 238.18C641.42 238.18 637.03 196.94 635.76 197.29C634.61 197.63 596.99 187.24 596.99 187.24C594.79 187.91 583.79 191.26 563.98 197.29C569.52 213.07 584.79 220.7 609.8 220.16Z"/><path id="alP7JDF2M" d="M323.34 393.59C323.34 393.59 327.99 380.34 345.52 375.86"/></defs><g><g><g><use fill="#000" fill-opacity="0" opacity="1" xlink:href="#b1Ydk2kran"/><g><use fill-opacity="0" stroke="#d5cdca" stroke-opacity="1" stroke-width="5" opacity="1" xlink:href="#b1Ydk2kran"/></g></g><g><use fill="#000" fill-opacity="0" opacity="1" xlink:href="#a3repR1a8t"/><g><use fill-opacity="0" stroke="#d5cdca" stroke-opacity="1" stroke-width="5" opacity="1" xlink:href="#a3repR1a8t"/></g></g><g><use fill="#f7a79e" fill-opacity="1" opacity="1" xlink:href="#e6jcnZAghg"/><g><use fill-opacity="0" stroke="#000" stroke-opacity="0" stroke-width="1" opacity="1" xlink:href="#e6jcnZAghg"/></g></g><g><use fill="#dbc55f" fill-opacity="1" opacity="1" xlink:href="#b1AQPUcLfs"/><g><use fill-opacity="0" stroke="#000" stroke-opacity="0" stroke-width="1" opacity="1" xlink:href="#b1AQPUcLfs"/></g></g><g><use fill="#298a7f" fill-opacity="1" opacity="1" xlink:href="#d3vwJ79sjl"/><g><use fill-opacity="0" stroke="#000" stroke-opacity="0" stroke-width="1" opacity="1" xlink:href="#d3vwJ79sjl"/></g></g><g><use fill="#fff" fill-opacity="1" opacity="1" xlink:href="#a5BNnO0Gn8"/><g><use fill-opacity="0" stroke="#000" stroke-opacity="0" stroke-width="1" opacity="1" xlink:href="#a5BNnO0Gn8"/></g></g><g><use fill="#000" fill-opacity="0" opacity="1" xlink:href="#c117y9dWQ4"/><g><use fill-opacity="0" stroke="#d5cdca" stroke-opacity="1" stroke-width="5" opacity="1" xlink:href="#c117y9dWQ4"/></g></g><g><use fill="#b07bb4" fill-opacity="1" opacity="1" xlink:href="#f1hX35N8t5"/><g><use fill-opacity="0" stroke="#000" stroke-opacity="0" stroke-width="1" opacity="1" xlink:href="#f1hX35N8t5"/></g></g><g><use fill="#000" fill-opacity="0" opacity="1" xlink:href="#lliTA8qdl"/><g><use fill-opacity="0" stroke="#fefefe" stroke-opacity="1" stroke-width="5" opacity="1" xlink:href="#lliTA8qdl"/></g></g><g><use fill="#000" fill-opacity="0" opacity="1" xlink:href="#a5lH4zShw"/><g><use fill-opacity="0" stroke="#fefefe" stroke-opacity="1" stroke-width="5" opacity="1" xlink:href="#a5lH4zShw"/></g></g><g><use fill="#fff" fill-opacity="1" opacity="1" xlink:href="#dSPQOYyi"/><g><use fill-opacity="0" stroke="#000" stroke-opacity="0" stroke-width="1" opacity="1" xlink:href="#dSPQOYyi"/></g></g><g><use fill="#000" fill-opacity="0" opacity="1" xlink:href="#bUX4ZwRmn"/><g><use fill-opacity="0" stroke="#d5cdca" stroke-opacity="1" stroke-width="5" opacity="1" xlink:href="#bUX4ZwRmn"/></g></g><g><use fill="#f7a79e" fill-opacity="1" opacity="1" xlink:href="#a2gQzA7cZ6"/><g><use fill-opacity="0" stroke="#000" stroke-opacity="0" stroke-width="1" opacity="1" xlink:href="#a2gQzA7cZ6"/></g></g><g><use fill="#fefefe" fill-opacity="1" opacity="1" xlink:href="#acQ3Kr0Ez"/><g><use fill-opacity="0" stroke="#000" stroke-opacity="0" stroke-width="1" opacity="1" xlink:href="#acQ3Kr0Ez"/></g></g><g><use fill="#b07bb4" fill-opacity="1" opacity="1" xlink:href="#a5xOZGK2qB"/><g><use fill-opacity="0" stroke="#000" stroke-opacity="0" stroke-width="1" opacity="1" xlink:href="#a5xOZGK2qB"/></g></g><g><use fill="#55c5d2" fill-opacity="1" opacity="1" xlink:href="#b15Tfja90o"/><g><use fill-opacity="0" stroke="#000" stroke-opacity="0" stroke-width="1" opacity="1" xlink:href="#b15Tfja90o"/></g></g><g><use fill="#b07bb4" fill-opacity="1" opacity="1" xlink:href="#b1nuz1KE7j"/><g><use fill-opacity="0" stroke="#000" stroke-opacity="0" stroke-width="1" opacity="1" xlink:href="#b1nuz1KE7j"/></g></g><g><use fill="#f7a79e" fill-opacity="1" opacity="1" xlink:href="#cgUg4izx"/><g><use fill-opacity="0" stroke="#000" stroke-opacity="0" stroke-width="1" opacity="1" xlink:href="#cgUg4izx"/></g></g><g><use fill="#f7a79e" fill-opacity="1" opacity="1" xlink:href="#a2PQccupWS"/><g><use fill-opacity="0" stroke="#000" stroke-opacity="0" stroke-width="1" opacity="1" xlink:href="#a2PQccupWS"/></g></g><g><use fill="#000" fill-opacity="0" opacity="1" xlink:href="#a1f4rgoHua"/><g><use fill-opacity="0" stroke="#fefefe" stroke-opacity="1" stroke-width="5" opacity="1" xlink:href="#a1f4rgoHua"/></g></g><g><use fill="#000" fill-opacity="0" opacity="1" xlink:href="#bjN5c2KFW"/><g><use fill-opacity="0" stroke="#fefefe" stroke-opacity="1" stroke-width="5" opacity="1" xlink:href="#bjN5c2KFW"/></g></g><g><use fill="#f7a79e" fill-opacity="1" opacity="1" xlink:href="#a3nweICS"/><g><use fill-opacity="0" stroke="#000" stroke-opacity="0" stroke-width="1" opacity="1" xlink:href="#a3nweICS"/></g></g><g><use fill="#55c5d2" fill-opacity="1" opacity="1" xlink:href="#a3VzYEh9YO"/><g><use fill-opacity="0" stroke="#000" stroke-opacity="0" stroke-width="1" opacity="1" xlink:href="#a3VzYEh9YO"/></g></g><g><use fill="#fefefe" fill-opacity="1" opacity="1" xlink:href="#e15MomTarO"/><g><use fill-opacity="0" stroke="#000" stroke-opacity="0" stroke-width="1" opacity="1" xlink:href="#e15MomTarO"/></g></g><g><use fill="#8c7372" fill-opacity="1" opacity="1" xlink:href="#be9dBAzgw"/><g><use fill-opacity="0" stroke="#000" stroke-opacity="0" stroke-width="1" opacity="1" xlink:href="#be9dBAzgw"/></g></g><g><use fill="#000" fill-opacity="0" opacity="1" xlink:href="#dfdPLzxG0"/><g><use fill-opacity="0" stroke="#3c3a3e" stroke-opacity="1" stroke-width="1" opacity="1" xlink:href="#dfdPLzxG0"/></g></g><g><use fill="#f7a79e" fill-opacity="1" opacity="1" xlink:href="#a314vFLTvJ"/><g><use fill-opacity="0" stroke="#000" stroke-opacity="0" stroke-width="1" opacity="1" xlink:href="#a314vFLTvJ"/></g></g><g><use fill="#eb8f8b" fill-opacity="1" opacity="1" xlink:href="#aBza1f8yN"/><g><use fill-opacity="0" stroke="#000" stroke-opacity="0" stroke-width="1" opacity="1" xlink:href="#aBza1f8yN"/></g></g><g><use fill="#eb8f8b" fill-opacity="1" opacity="1" xlink:href="#cxKu2qiUr"/><g><use fill-opacity="0" stroke="#000" stroke-opacity="0" stroke-width="1" opacity="1" xlink:href="#cxKu2qiUr"/></g></g><g><use fill="#f7a79e" fill-opacity="1" opacity="1" xlink:href="#e176j0R9XD"/><g><use fill-opacity="0" stroke="#000" stroke-opacity="0" stroke-width="1" opacity="1" xlink:href="#e176j0R9XD"/></g></g><g><use fill="#f7a79e" fill-opacity="1" opacity="1" xlink:href="#a2ux64y55I"/><g><use fill-opacity="0" stroke="#000" stroke-opacity="0" stroke-width="1" opacity="1" xlink:href="#a2ux64y55I"/></g></g><g><use fill="#f7a79e" fill-opacity="1" opacity="1" xlink:href="#a2HST2ALzz"/><g><use fill-opacity="0" stroke="#000" stroke-opacity="0" stroke-width="1" opacity="1" xlink:href="#a2HST2ALzz"/></g></g><g><use fill="#4c4269" fill-opacity="1" opacity="1" xlink:href="#a5ZKtQp7vM"/><g><use fill-opacity="0" stroke="#000" stroke-opacity="0" stroke-width="1" opacity="1" xlink:href="#a5ZKtQp7vM"/></g></g><g><use fill="#403754" fill-opacity="1" opacity="1" xlink:href="#bGUKsu2Kv"/><g><use fill-opacity="0" stroke="#000" stroke-opacity="0" stroke-width="1" opacity="1" xlink:href="#bGUKsu2Kv"/></g></g><g><use fill="#dddbdb" fill-opacity="1" opacity="1" xlink:href="#b4m01CX2D4"/><g><use fill-opacity="0" stroke="#000" stroke-opacity="0" stroke-width="1" opacity="1" xlink:href="#b4m01CX2D4"/></g></g><g><use fill="#fefefe" fill-opacity="1" opacity="1" xlink:href="#c34V42O3T9"/><g><use fill-opacity="0" stroke="#000" stroke-opacity="0" stroke-width="1" opacity="1" xlink:href="#c34V42O3T9"/></g></g><g><use fill="#f7a79e" fill-opacity="1" opacity="1" xlink:href="#aKdBlb1EF"/><g><use fill-opacity="0" stroke="#000" stroke-opacity="0" stroke-width="1" opacity="1" xlink:href="#aKdBlb1EF"/></g></g><g><use fill="#55c5d2" fill-opacity="1" opacity="1" xlink:href="#eEc3fuera"/><g><use fill-opacity="0" stroke="#000" stroke-opacity="0" stroke-width="1" opacity="1" xlink:href="#eEc3fuera"/></g></g><g><use fill="#000" fill-opacity="0" opacity="1" xlink:href="#c1HanrvnUR"/><g><use fill-opacity="0" stroke="#3c3a3e" stroke-opacity="1" stroke-width="1" opacity="1" xlink:href="#c1HanrvnUR"/></g></g><g><use fill="#f7a79e" fill-opacity="1" opacity="1" xlink:href="#aqYBjtOhm"/><g><use fill-opacity="0" stroke="#000" stroke-opacity="0" stroke-width="1" opacity="1" xlink:href="#aqYBjtOhm"/></g></g><g><use fill="#3c3a3e" fill-opacity="1" opacity="1" xlink:href="#b1l4LOhax"/><g><use fill-opacity="0" stroke="#000" stroke-opacity="0" stroke-width="1" opacity="1" xlink:href="#b1l4LOhax"/></g></g><g><use fill="#eb8f8b" fill-opacity="1" opacity="1" xlink:href="#a53qtFI5m1"/><g><use fill-opacity="0" stroke="#000" stroke-opacity="0" stroke-width="1" opacity="1" xlink:href="#a53qtFI5m1"/></g></g><g><use fill="#000" fill-opacity="0" opacity="1" xlink:href="#a1EFqeA4GD"/><g><use fill-opacity="0" stroke="#3c3a3e" stroke-opacity="1" stroke-width="2" opacity="1" xlink:href="#a1EFqeA4GD"/></g></g><g><use fill="#eb8f8b" fill-opacity="1" opacity="1" xlink:href="#a2DKqSYqK"/><g><use fill-opacity="0" stroke="#000" stroke-opacity="0" stroke-width="1" opacity="1" xlink:href="#a2DKqSYqK"/></g></g><g><use fill="#000" fill-opacity="0" opacity="1" xlink:href="#b3GtGTKpz7"/><g><use fill-opacity="0" stroke="#3c3a3e" stroke-opacity="1" stroke-width="2" opacity="1" xlink:href="#b3GtGTKpz7"/></g></g><g><use fill="#3c3a3e" fill-opacity="1" opacity="1" xlink:href="#e1D2X1qa52"/><g><use fill-opacity="0" stroke="#000" stroke-opacity="0" stroke-width="1" opacity="1" xlink:href="#e1D2X1qa52"/></g></g><g><use fill="#f7a79e" fill-opacity="1" opacity="1" xlink:href="#d1yOG0QfIZ"/><g><use fill-opacity="0" stroke="#000" stroke-opacity="0" stroke-width="1" opacity="1" xlink:href="#d1yOG0QfIZ"/></g></g><g><use fill="#000" fill-opacity="0" opacity="1" xlink:href="#b12biWlpzy"/><g><use fill-opacity="0" stroke="#3c3a3e" stroke-opacity="1" stroke-width="2" opacity="1" xlink:href="#b12biWlpzy"/></g></g><g><use fill="#3c3a3e" fill-opacity="1" opacity="1" xlink:href="#b2Lke1WqDe"/><g><use fill-opacity="0" stroke="#000" stroke-opacity="0" stroke-width="1" opacity="1" xlink:href="#b2Lke1WqDe"/></g></g><g><use fill="#3c3a3e" fill-opacity="1" opacity="1" xlink:href="#cP05oxK2m"/><g><use fill-opacity="0" stroke="#000" stroke-opacity="0" stroke-width="1" opacity="1" xlink:href="#cP05oxK2m"/></g></g><g><use fill="#3c3a3e" fill-opacity="1" opacity="1" xlink:href="#d2aS19Mi9c"/><g><use fill-opacity="0" stroke="#000" stroke-opacity="0" stroke-width="1" opacity="1" xlink:href="#d2aS19Mi9c"/></g></g><g><use fill="#3c3a3e" fill-opacity="1" opacity="1" xlink:href="#b4Lc3gTGJg"/><g><use fill-opacity="0" stroke="#000" stroke-opacity="0" stroke-width="1" opacity="1" xlink:href="#b4Lc3gTGJg"/></g></g><g><use fill="#fefefe" fill-opacity="1" opacity="1" xlink:href="#d4liGh0saN"/><g><use fill-opacity="0" stroke="#000" stroke-opacity="0" stroke-width="1" opacity="1" xlink:href="#d4liGh0saN"/></g></g><g><use fill="#000" fill-opacity="0" opacity="1" xlink:href="#f25xUxK1vF"/><g><use fill-opacity="0" stroke="#b07bb4" stroke-opacity="1" stroke-width="2" opacity="1" xlink:href="#f25xUxK1vF"/></g></g><g><use fill="#000" fill-opacity="0" opacity="1" xlink:href="#b24II9Od0S"/><g><use fill-opacity="0" stroke="#b07bb4" stroke-opacity="1" stroke-width="2" opacity="1" xlink:href="#b24II9Od0S"/></g></g><g><use fill="#000" fill-opacity="0" opacity="1" xlink:href="#e1tjTlrNUc"/><g><use fill-opacity="0" stroke="#b07bb4" stroke-opacity="1" stroke-width="2" opacity="1" xlink:href="#e1tjTlrNUc"/></g></g><g><use fill="#000" fill-opacity="0" opacity="1" xlink:href="#a2OVOTKR6"/><g><use fill-opacity="0" stroke="#b07bb4" stroke-opacity="1" stroke-width="2" opacity="1" xlink:href="#a2OVOTKR6"/></g></g><g><use fill="#000" fill-opacity="0" opacity="1" xlink:href="#c14XCoVMqq"/><g><use fill-opacity="0" stroke="#b07bb4" stroke-opacity="1" stroke-width="2" opacity="1" xlink:href="#c14XCoVMqq"/></g></g><g><use fill="#3c3a3e" fill-opacity="1" opacity="1" xlink:href="#a29SoOM8ZI"/><g><use fill-opacity="0" stroke="#000" stroke-opacity="0" stroke-width="1" opacity="1" xlink:href="#a29SoOM8ZI"/></g></g><g><use fill="#3c3a3e" fill-opacity="1" opacity="1" xlink:href="#aUWxOOWrm"/><g><use fill-opacity="0" stroke="#000" stroke-opacity="0" stroke-width="1" opacity="1" xlink:href="#aUWxOOWrm"/></g></g><g><use fill="#3c3a3e" fill-opacity="1" opacity="1" xlink:href="#aAGM66tcn"/><g><use fill-opacity="0" stroke="#000" stroke-opacity="0" stroke-width="1" opacity="1" xlink:href="#aAGM66tcn"/></g></g><g><use fill="#3c3a3e" fill-opacity="1" opacity="1" xlink:href="#d6g4DknVl"/><g><use fill-opacity="0" stroke="#000" stroke-opacity="0" stroke-width="1" opacity="1" xlink:href="#d6g4DknVl"/></g></g><g><use fill="#3c3a3e" fill-opacity="1" opacity="1" xlink:href="#d6qwBBdno"/><g><use fill-opacity="0" stroke="#000" stroke-opacity="0" stroke-width="1" opacity="1" xlink:href="#d6qwBBdno"/></g></g><g><use fill="#3c3a3e" fill-opacity="1" opacity="1" xlink:href="#ezOVmwfId"/><g><use fill-opacity="0" stroke="#000" stroke-opacity="0" stroke-width="1" opacity="1" xlink:href="#ezOVmwfId"/></g></g><g><use fill="#eb8f8b" fill-opacity="1" opacity="1" xlink:href="#b2I8FacerW"/><g><use fill-opacity="0" stroke="#000" stroke-opacity="0" stroke-width="1" opacity="1" xlink:href="#b2I8FacerW"/></g></g><g><use fill="#000" fill-opacity="0" opacity="1" xlink:href="#a1cOBIbQek"/><g><use fill-opacity="0" stroke="#3c3a3e" stroke-opacity="1" stroke-width="2" opacity="1" xlink:href="#a1cOBIbQek"/></g></g><g><use fill="#eb8f8b" fill-opacity="1" opacity="1" xlink:href="#ahqwAblv"/><g><use fill-opacity="0" stroke="#000" stroke-opacity="0" stroke-width="1" opacity="1" xlink:href="#ahqwAblv"/></g></g><g><use fill="#000" fill-opacity="0" opacity="1" xlink:href="#ehjf0wzbj"/><g><use fill-opacity="0" stroke="#3c3a3e" stroke-opacity="1" stroke-width="2" opacity="1" xlink:href="#ehjf0wzbj"/></g></g><g><use fill="#3c3a3e" fill-opacity="1" opacity="1" xlink:href="#b10mJQF0H5"/><g><use fill-opacity="0" stroke="#000" stroke-opacity="0" stroke-width="1" opacity="1" xlink:href="#b10mJQF0H5"/></g></g><g><use fill="#f7a79e" fill-opacity="1" opacity="1" xlink:href="#b14qMJoVQa"/><g><use fill-opacity="0" stroke="#000" stroke-opacity="0" stroke-width="1" opacity="1" xlink:href="#b14qMJoVQa"/></g></g><g><use fill="#3c3a3e" fill-opacity="1" opacity="1" xlink:href="#bhXi74EOS"/><g><use fill-opacity="0" stroke="#000" stroke-opacity="0" stroke-width="1" opacity="1" xlink:href="#bhXi74EOS"/></g></g><g><use fill="#f7a79e" fill-opacity="1" opacity="1" xlink:href="#ayaxRqYtp"/><g><use fill-opacity="0" stroke="#000" stroke-opacity="0" stroke-width="1" opacity="1" xlink:href="#ayaxRqYtp"/></g></g><g><use fill="#000" fill-opacity="0" opacity="1" xlink:href="#iUagxoJ8z"/><g><use fill-opacity="0" stroke="#3c3a3e" stroke-opacity="1" stroke-width="2" opacity="1" xlink:href="#iUagxoJ8z"/></g></g><g><use fill="#3c3a3e" fill-opacity="1" opacity="1" xlink:href="#a1Zvhu2aXa"/><g><use fill-opacity="0" stroke="#000" stroke-opacity="0" stroke-width="1" opacity="1" xlink:href="#a1Zvhu2aXa"/></g></g><g><use fill="#3c3a3e" fill-opacity="1" opacity="1" xlink:href="#eWoxCGoVt"/><g><use fill-opacity="0" stroke="#000" stroke-opacity="0" stroke-width="1" opacity="1" xlink:href="#eWoxCGoVt"/></g></g><g><use fill="#3c3a3e" fill-opacity="1" opacity="1" xlink:href="#dnV6XvQAW"/><g><use fill-opacity="0" stroke="#000" stroke-opacity="0" stroke-width="1" opacity="1" xlink:href="#dnV6XvQAW"/></g></g><g><use fill="#3c3a3e" fill-opacity="1" opacity="1" xlink:href="#d1sBNIGoTb"/><g><use fill-opacity="0" stroke="#000" stroke-opacity="0" stroke-width="1" opacity="1" xlink:href="#d1sBNIGoTb"/></g></g><g><use fill="#fefefe" fill-opacity="1" opacity="1" xlink:href="#f2FSNOmPf5"/><g><use fill-opacity="0" stroke="#000" stroke-opacity="0" stroke-width="1" opacity="1" xlink:href="#f2FSNOmPf5"/></g></g><g><use fill="#3c3a3e" fill-opacity="1" opacity="1" xlink:href="#b1UHbYY1EC"/><g><use fill-opacity="0" stroke="#000" stroke-opacity="0" stroke-width="1" opacity="1" xlink:href="#b1UHbYY1EC"/></g></g><g><use fill="#3c3a3e" fill-opacity="1" opacity="1" xlink:href="#d4V1JyKbeB"/><g><use fill-opacity="0" stroke="#000" stroke-opacity="0" stroke-width="1" opacity="1" xlink:href="#d4V1JyKbeB"/></g></g><g><use fill="#3c3a3e" fill-opacity="1" opacity="1" xlink:href="#ctUdoRbm8"/><g><use fill-opacity="0" stroke="#000" stroke-opacity="0" stroke-width="1" opacity="1" xlink:href="#ctUdoRbm8"/></g></g><g><use fill="#f7a79e" fill-opacity="1" opacity="1" xlink:href="#elgO4RzHH"/><g><use fill-opacity="0" stroke="#000" stroke-opacity="0" stroke-width="1" opacity="1" xlink:href="#elgO4RzHH"/></g></g><g><use fill="#f7a79e" fill-opacity="1" opacity="1" xlink:href="#iMFB7XdnZ"/><g><use fill-opacity="0" stroke="#000" stroke-opacity="0" stroke-width="1" opacity="1" xlink:href="#iMFB7XdnZ"/></g></g><g><use fill="#eb8f8b" fill-opacity="1" opacity="1" xlink:href="#arg2EIzbJ"/><g><use fill-opacity="0" stroke="#000" stroke-opacity="0" stroke-width="1" opacity="1" xlink:href="#arg2EIzbJ"/></g></g><g><use fill="#298a7f" fill-opacity="1" opacity="1" xlink:href="#biUwvkV8P"/><g><use fill-opacity="0" stroke="#000" stroke-opacity="0" stroke-width="1" opacity="1" xlink:href="#biUwvkV8P"/></g></g><g><use fill="#f7a79e" fill-opacity="1" opacity="1" xlink:href="#aaXLKzdIG"/><g><use fill-opacity="0" stroke="#000" stroke-opacity="0" stroke-width="1" opacity="1" xlink:href="#aaXLKzdIG"/></g></g><g><use fill="#3c5f85" fill-opacity="1" opacity="1" xlink:href="#d2eGwqj9j"/><g><use fill-opacity="0" stroke="#000" stroke-opacity="0" stroke-width="1" opacity="1" xlink:href="#d2eGwqj9j"/></g></g><g><use fill="#3c5f85" fill-opacity="1" opacity="1" xlink:href="#a2QNf4oU1"/><g><use fill-opacity="0" stroke="#000" stroke-opacity="0" stroke-width="1" opacity="1" xlink:href="#a2QNf4oU1"/></g></g><g><use fill="#3c5f85" fill-opacity="1" opacity="1" xlink:href="#b2fdqFy0FS"/><g><use fill-opacity="0" stroke="#000" stroke-opacity="0" stroke-width="1" opacity="1" xlink:href="#b2fdqFy0FS"/></g></g><g><use fill="#f7a79e" fill-opacity="1" opacity="1" xlink:href="#a2vQeWWB91"/><g><use fill-opacity="0" stroke="#000" stroke-opacity="0" stroke-width="1" opacity="1" xlink:href="#a2vQeWWB91"/></g></g><g><use fill="#eb8f8b" fill-opacity="1" opacity="1" xlink:href="#cj8Act90I"/><g><use fill-opacity="0" stroke="#000" stroke-opacity="0" stroke-width="1" opacity="1" xlink:href="#cj8Act90I"/></g></g><g><use fill="#b07bb4" fill-opacity="1" opacity="1" xlink:href="#e24EiToxgD"/><g><use fill-opacity="0" stroke="#000" stroke-opacity="0" stroke-width="1" opacity="1" xlink:href="#e24EiToxgD"/></g></g><g><use fill="#f7a79e" fill-opacity="1" opacity="1" xlink:href="#a1ocEPzpr"/><g><use fill-opacity="0" stroke="#000" stroke-opacity="0" stroke-width="1" opacity="1" xlink:href="#a1ocEPzpr"/></g></g><g><use fill="#f7a79e" fill-opacity="1" opacity="1" xlink:href="#aBhChOfDm"/><g><use fill-opacity="0" stroke="#000" stroke-opacity="0" stroke-width="1" opacity="1" xlink:href="#aBhChOfDm"/></g></g><g><use fill="#f7a79e" fill-opacity="1" opacity="1" xlink:href="#a5ju9rejRN"/><g><use fill-opacity="0" stroke="#000" stroke-opacity="0" stroke-width="1" opacity="1" xlink:href="#a5ju9rejRN"/></g></g><g><use fill="#f7a79e" fill-opacity="1" opacity="1" xlink:href="#c7pZiSuy1"/><g><use fill-opacity="0" stroke="#000" stroke-opacity="0" stroke-width="1" opacity="1" xlink:href="#c7pZiSuy1"/></g></g><g><use fill="#f7a79e" fill-opacity="1" opacity="1" xlink:href="#a2zYVGzvTL"/><g><use fill-opacity="0" stroke="#000" stroke-opacity="0" stroke-width="1" opacity="1" xlink:href="#a2zYVGzvTL"/></g></g><g><use fill="#f7a79e" fill-opacity="1" opacity="1" xlink:href="#b1BIA58dh4"/><g><use fill-opacity="0" stroke="#000" stroke-opacity="0" stroke-width="1" opacity="1" xlink:href="#b1BIA58dh4"/></g></g><g><use fill="#000" fill-opacity="0" opacity="1" xlink:href="#b1yjGj0C6p"/><g><use fill-opacity="0" stroke="#3c3a3e" stroke-opacity="1" stroke-width="1" opacity="1" xlink:href="#b1yjGj0C6p"/></g></g><g><use fill="#f7a79e" fill-opacity="1" opacity="1" xlink:href="#a10xrNX4aF"/><g><use fill-opacity="0" stroke="#000" stroke-opacity="0" stroke-width="1" opacity="1" xlink:href="#a10xrNX4aF"/></g></g><g><use fill="#f7a79e" fill-opacity="1" opacity="1" xlink:href="#f3MzCs1Dhv"/><g><use fill-opacity="0" stroke="#000" stroke-opacity="0" stroke-width="1" opacity="1" xlink:href="#f3MzCs1Dhv"/></g></g><g><use fill="#eb8f8b" fill-opacity="1" opacity="1" xlink:href="#d2JvYOgdi0"/><g><use fill-opacity="0" stroke="#000" stroke-opacity="0" stroke-width="1" opacity="1" xlink:href="#d2JvYOgdi0"/></g></g><g><use fill="#b07bb4" fill-opacity="1" opacity="1" xlink:href="#b2AYBKQXyf"/><g><use fill-opacity="0" stroke="#000" stroke-opacity="0" stroke-width="1" opacity="1" xlink:href="#b2AYBKQXyf"/></g></g><g><use fill="#b07bb4" fill-opacity="1" opacity="1" xlink:href="#b2wEDhZw4B"/><g><use fill-opacity="0" stroke="#000" stroke-opacity="0" stroke-width="1" opacity="1" xlink:href="#b2wEDhZw4B"/></g></g><g><use fill="#000" fill-opacity="0" opacity="1" xlink:href="#a14CEUTh0m"/><g><use fill-opacity="0" stroke="#3c3a3e" stroke-opacity="1" stroke-width="1" opacity="1" xlink:href="#a14CEUTh0m"/></g></g><g><use fill="#000" fill-opacity="0" opacity="1" xlink:href="#c4H79r81V8"/><g><use fill-opacity="0" stroke="#3c3a3e" stroke-opacity="1" stroke-width="1" opacity="1" xlink:href="#c4H79r81V8"/></g></g><g><use fill="#3c3a3e" fill-opacity="1" opacity="1" xlink:href="#anlpulwnD"/><g><use fill-opacity="0" stroke="#000" stroke-opacity="0" stroke-width="1" opacity="1" xlink:href="#anlpulwnD"/></g></g><g><use fill="#000" fill-opacity="0" opacity="1" xlink:href="#cMCwqS3wr"/><g><use fill-opacity="0" stroke="#3c3a3e" stroke-opacity="1" stroke-width="1" opacity="1" xlink:href="#cMCwqS3wr"/></g></g><g><use fill="#3c3a3e" fill-opacity="1" opacity="1" xlink:href="#a28e0vrT2h"/><g><use fill-opacity="0" stroke="#000" stroke-opacity="0" stroke-width="1" opacity="1" xlink:href="#a28e0vrT2h"/></g></g><g><use fill="#f7a79e" fill-opacity="1" opacity="1" xlink:href="#b1gbYaalT4"/><g><use fill-opacity="0" stroke="#000" stroke-opacity="0" stroke-width="1" opacity="1" xlink:href="#b1gbYaalT4"/></g></g><g><use fill="#3c3a3e" fill-opacity="1" opacity="1" xlink:href="#b18xwJ94QW"/><g><use fill-opacity="0" stroke="#000" stroke-opacity="0" stroke-width="1" opacity="1" xlink:href="#b18xwJ94QW"/></g></g><g><use fill="#eb8f8b" fill-opacity="1" opacity="1" xlink:href="#b190rKGMhW"/><g><use fill-opacity="0" stroke="#000" stroke-opacity="0" stroke-width="1" opacity="1" xlink:href="#b190rKGMhW"/></g></g><g><use fill="#000" fill-opacity="0" opacity="1" xlink:href="#d6OetF5ky5"/><g><use fill-opacity="0" stroke="#3c3a3e" stroke-opacity="1" stroke-width="2" opacity="1" xlink:href="#d6OetF5ky5"/></g></g><g><use fill="#eb8f8b" fill-opacity="1" opacity="1" xlink:href="#gGZL77VS5"/><g><use fill-opacity="0" stroke="#000" stroke-opacity="0" stroke-width="1" opacity="1" xlink:href="#gGZL77VS5"/></g></g><g><use fill="#000" fill-opacity="0" opacity="1" xlink:href="#cNhaVLII7"/><g><use fill-opacity="0" stroke="#3c3a3e" stroke-opacity="1" stroke-width="2" opacity="1" xlink:href="#cNhaVLII7"/></g></g><g><use fill="#f7a79e" fill-opacity="1" opacity="1" xlink:href="#aqvKqHST"/><g><use fill-opacity="0" stroke="#000" stroke-opacity="0" stroke-width="1" opacity="1" xlink:href="#aqvKqHST"/></g></g><g><use fill="#3c3a3e" fill-opacity="1" opacity="1" xlink:href="#b5z1P4eXo"/><g><use fill-opacity="0" stroke="#000" stroke-opacity="0" stroke-width="1" opacity="1" xlink:href="#b5z1P4eXo"/></g></g><g><use fill="#000" fill-opacity="0" opacity="1" xlink:href="#bFgN2GOuo"/><g><use fill-opacity="0" stroke="#3c3a3e" stroke-opacity="1" stroke-width="2" opacity="1" xlink:href="#bFgN2GOuo"/></g></g><g><use fill="#3c3a3e" fill-opacity="1" opacity="1" xlink:href="#d2i15AI6oX"/><g><use fill-opacity="0" stroke="#000" stroke-opacity="0" stroke-width="1" opacity="1" xlink:href="#d2i15AI6oX"/></g></g><g><use fill="#3c3a3e" fill-opacity="1" opacity="1" xlink:href="#c4VtgOQA2V"/><g><use fill-opacity="0" stroke="#000" stroke-opacity="0" stroke-width="1" opacity="1" xlink:href="#c4VtgOQA2V"/></g></g><g><use fill="#3c3a3e" fill-opacity="1" opacity="1" xlink:href="#b6ir7VzugW"/><g><use fill-opacity="0" stroke="#000" stroke-opacity="0" stroke-width="1" opacity="1" xlink:href="#b6ir7VzugW"/></g></g><g><use fill="#3c3a3e" fill-opacity="1" opacity="1" xlink:href="#b4OXruKWH"/><g><use fill-opacity="0" stroke="#000" stroke-opacity="0" stroke-width="1" opacity="1" xlink:href="#b4OXruKWH"/></g></g><g><use fill="#000" fill-opacity="0" opacity="1" xlink:href="#a5btiV3AhR"/><g><use fill-opacity="0" stroke="#3c3a3e" stroke-opacity="1" stroke-width="2" opacity="1" xlink:href="#a5btiV3AhR"/></g></g><g><use fill="#000" fill-opacity="0" opacity="1" xlink:href="#b8km8tA5y"/><g><use fill-opacity="0" stroke="#fefefe" stroke-opacity="1" stroke-width="2" opacity="1" xlink:href="#b8km8tA5y"/></g></g><g><use fill="#000" fill-opacity="0" opacity="1" xlink:href="#f1dK6XQKcv"/><g><use fill-opacity="0" stroke="#fefefe" stroke-opacity="1" stroke-width="2" opacity="1" xlink:href="#f1dK6XQKcv"/></g></g><g><use fill="#000" fill-opacity="0" opacity="1" xlink:href="#aYqv53aHu"/><g><use fill-opacity="0" stroke="#fefefe" stroke-opacity="1" stroke-width="2" opacity="1" xlink:href="#aYqv53aHu"/></g></g><g><use fill="#000" fill-opacity="0" opacity="1" xlink:href="#j6tTu7dIsm"/><g><use fill-opacity="0" stroke="#fefefe" stroke-opacity="1" stroke-width="2" opacity="1" xlink:href="#j6tTu7dIsm"/></g></g><g><use fill="#000" fill-opacity="0" opacity="1" xlink:href="#a3eCwcieZS"/><g><use fill-opacity="0" stroke="#fefefe" stroke-opacity="1" stroke-width="2" opacity="1" xlink:href="#a3eCwcieZS"/></g></g><g><use fill="#3c3a3e" fill-opacity="1" opacity="1" xlink:href="#a2aaazjOf"/><g><use fill-opacity="0" stroke="#000" stroke-opacity="0" stroke-width="1" opacity="1" xlink:href="#a2aaazjOf"/></g></g><g><use fill="#000" fill-opacity="0" opacity="1" xlink:href="#alP7JDF2M"/><g><use fill-opacity="0" stroke="#3c3a3e" stroke-opacity="1" stroke-width="1" opacity="1" xlink:href="#alP7JDF2M"/></g></g></g></g></svg>