<svg xmlns="http://www.w3.org/2000/svg" width="45.563" height="42.304" viewBox="0 0 45.563 42.304"><defs><style>.a{fill:none;}.b{fill:#fff;}</style></defs><path class="a" d="M0,0H45.563V42.3H0Z"/><path class="b" d="M6.156,9.661H2V36.473A4.015,4.015,0,0,0,6.156,40.3H35.25v-3.83H6.156ZM39.407,2H14.469a4.015,4.015,0,0,0-4.156,3.83V28.813a4.015,4.015,0,0,0,4.156,3.83H39.407a4.015,4.015,0,0,0,4.156-3.83V5.83A4.015,4.015,0,0,0,39.407,2ZM37.329,19.237H29.016V26.9H24.86V19.237H16.547v-3.83H24.86V7.746h4.156v7.661h8.313Z"/></svg>