<svg xmlns="http://www.w3.org/2000/svg" width="28.932" height="23" viewBox="0 0 28.932 23">
    <defs>
        <style>.a{fill:none;}.b{fill:#b0b0b0;}</style>
    </defs>
    <path class="a" d="M0,0H28.932V23H0Z"/>
    <path class="b"
          d="M24.658,12.444H4.274c-.7,0-1.274.425-1.274.944v5.667c0,.519.573.944,1.274.944H24.658c.7,0,1.274-.425,1.274-.944V13.389C25.932,12.869,25.358,12.444,24.658,12.444ZM8.1,18.111c-1.4,0-2.548-.85-2.548-1.889S6.695,14.333,8.1,14.333s2.548.85,2.548,1.889S9.5,18.111,8.1,18.111ZM24.658,3H4.274C3.573,3,3,3.425,3,3.944V9.611c0,.519.573.944,1.274.944H24.658c.7,0,1.274-.425,1.274-.944V3.944C25.932,3.425,25.358,3,24.658,3ZM8.1,8.667c-1.4,0-2.548-.85-2.548-1.889S6.695,4.889,8.1,4.889s2.548.85,2.548,1.889S9.5,8.667,8.1,8.667Z"/>
</svg>