<?xml version="1.0" encoding="UTF-8" standalone="no"?>
<!-- Generator: Adobe Illustrator 16.0.0, SVG Export Plug-In . SVG Version: 6.00 Build 0)  -->

<svg
        xmlns:dc="http://purl.org/dc/elements/1.1/"
        xmlns:cc="http://creativecommons.org/ns#"
        xmlns:rdf="http://www.w3.org/1999/02/22-rdf-syntax-ns#"
        xmlns:sodipodi="http://sodipodi.sourceforge.net/DTD/sodipodi-0.dtd"
        xmlns:inkscape="http://www.inkscape.org/namespaces/inkscape"
        xmlns="http://www.w3.org/2000/svg"
        version="1.1"
        id="Layer_1"
        x="0px"
        y="0px"
        width="100"
        height="121"
        viewBox="0 0 100 121"
        enable-background="new 0 0 236.946 285.125"
        xml:space="preserve"
        sodipodi:docname="logo.svg"
        inkscape:version="0.92.4 (5da689c313, 2019-01-14)"><title
   id="title843">Sony Max logo</title>
    <metadata
            id="metadata33"><rdf:RDF><cc:Work
       rdf:about=""><dc:format>image/svg+xml</dc:format><dc:type
            rdf:resource="http://purl.org/dc/dcmitype/StillImage"/><dc:title>Sony Max logo</dc:title><cc:license
            rdf:resource="http://scripts.sil.org/OFL"/></cc:Work><cc:License
            rdf:about="http://scripts.sil.org/OFL"><cc:permits
   rdf:resource="http://scripts.sil.org/pub/OFL/Reproduction" />
        <cc:permits
                rdf:resource="http://scripts.sil.org/pub/OFL/Distribution"/>
        <cc:permits
                rdf:resource="http://scripts.sil.org/pub/OFL/Embedding"/>
        <cc:permits
                rdf:resource="http://scripts.sil.org/pub/OFL/DerivativeWorks"/>
        <cc:requires
                rdf:resource="http://scripts.sil.org/pub/OFL/Notice"/>
        <cc:requires
                rdf:resource="http://scripts.sil.org/pub/OFL/Attribution"/>
        <cc:requires
                rdf:resource="http://scripts.sil.org/pub/OFL/ShareAlike"/>
        <cc:requires
                rdf:resource="http://scripts.sil.org/pub/OFL/DerivativeRenaming"/>
        <cc:requires
                rdf:resource="http://scripts.sil.org/pub/OFL/BundlingWhenSelling"/></cc:License></rdf:RDF></metadata>
    <defs
            id="defs31"/>
    <sodipodi:namedview
            pagecolor="#ffffff"
            bordercolor="#666666"
            borderopacity="1"
            objecttolerance="10"
            gridtolerance="10"
            guidetolerance="10"
            inkscape:pageopacity="0"
            inkscape:pageshadow="2"
            inkscape:window-width="1920"
            inkscape:window-height="1001"
            id="namedview29"
            showgrid="false"
            inkscape:showpageshadow="false"
            inkscape:zoom="2.8284271"
            inkscape:cx="-53.009751"
            inkscape:cy="58.265913"
            inkscape:window-x="-9"
            inkscape:window-y="-9"
            inkscape:window-maximized="1"
            inkscape:current-layer="Layer_1"/>
    <path
            style="fill:#151410;stroke-width:0.4161275"
            d="M 0.72203213,25.071732 H 99.321764 V 120.14272 H 0.72203213 Z"
            id="rect2"/>
    <path
            style="fill:#151410;stroke-width:0.4161275"
            d="M 0.72203213,1.4943848 H 99.321764 V 24.390551 H 0.72203213 Z"
            id="rect4"/>
    <path
            style="fill:#ffffff;stroke-width:0.4161275"
            d="M 2.9766145,27.268875 H 97.318541 V 96.333969 H 2.9766145 Z"
            id="rect6"/>
    <path
            style="fill:#e62c93;fill-opacity:1;stroke-width:0.4161275"
            d="M 14.487535,86.468857 H 50.309034 V 96.33191 H 14.487535 Z"
            id="rect8"/>
    <path
            d="m 50.414309,41.92448 c 0.03412,-4.11634 3.707286,-6.45663 11.971157,-6.38922 3.653184,0.0362 7.524418,1.032 10.211353,2.47845 2.690262,1.44813 4.235765,4.57366 4.194567,8.3675 l 20.521319,0.0441 V 27.27097 H 18.656713 C 16.004317,31.92328 14.527897,37.3991 14.474216,43.7105 14.09554,87.24076 79.9706,75.94206 79.819542,93.19513 c -0.01123,1.16016 -0.30668,2.20464 -0.858468,3.13344 H 97.313126 V 62.39129 C 77.956955,52.69261 50.315274,53.00762 50.414309,41.92448"
            id="path10"
            inkscape:connector-curvature="0"
            style="fill:#9000f0;stroke-width:0.4161275;fill-opacity:0.6901961"/>


    <polygon
            points="92.572,274.228 92.488,273.978 92.488,274.354 "
            id="polygon18"
            style="fill:#fbc311"
            transform="matrix(0.41612747,0,0,0.41612747,0.72203503,1.49436)"/>


    <text
            xml:space="preserve"
            style="font-style:normal;font-variant:normal;font-weight:normal;font-stretch:normal;font-size:14.66666698px;line-height:1.25;font-family:Arial;-inkscape-font-specification:Arial;letter-spacing:0px;word-spacing:0px;fill:#000000;fill-opacity:1;stroke:none"
            x="12.374369"
            y="11.398449"
            id="text857"><tspan
     sodipodi:role="line"
     id="tspan855"
     x="12.374369"
     y="24.609514" /></text>

    <path
            style="font-style:normal;font-variant:normal;font-weight:normal;font-stretch:normal;font-size:24px;line-height:1.25;font-family:'Wide Latin';-inkscape-font-specification:'Wide Latin';letter-spacing:0px;word-spacing:0px;fill:#ffffff;fill-opacity:1;stroke:none"
            d="M 15.773438 4.4824219 C 12.625 4.4824219 10.152344 5.0058594 8.3554688 6.0527344 C 6.5664063 7.0996094 5.671875 8.5449218 5.671875 10.388672 C 5.671875 12.349609 7.0078125 13.865234 9.6796875 14.935547 C 11.359375 15.607422 14.230469 16.095703 18.292969 16.400391 L 21.785156 16.669922 C 23.402344 16.794922 24.421875 16.927735 24.84375 17.068359 C 25.273437 17.201172 25.488281 17.466797 25.488281 17.865234 C 25.488281 18.716797 23.898437 19.142578 20.71875 19.142578 C 17.695313 19.142578 14.929688 18.68164 12.421875 17.759766 C 9.921875 16.83789 7.9570313 15.55664 6.5273438 13.916016 L 6.5273438 21.931641 L 10.6875 20.384766 C 14.328125 21.533203 17.882812 22.107422 21.351562 22.107422 C 24.585938 22.107422 27.160156 21.595703 29.074219 20.572266 C 30.996093 19.541016 31.957031 18.158203 31.957031 16.423828 C 31.957031 14.486328 30.746093 12.939453 28.324219 11.783203 C 26.878906 11.095703 24.023438 10.580078 19.757812 10.236328 L 16.359375 9.9667969 C 14.4375 9.8105469 13.128906 9.6308594 12.433594 9.4277344 C 11.738281 9.2246094 11.390625 8.9238282 11.390625 8.5253906 C 11.390625 7.6738282 12.820313 7.2480469 15.679688 7.2480469 C 20.421876 7.2480469 24.890625 8.6152346 29.085938 11.349609 L 29.085938 4.5878906 L 24.597656 5.9707031 L 23.929688 5.7363281 C 21.523437 4.9003907 18.804688 4.4824219 15.773438 4.4824219 z M 33.234375 5.3027344 L 39.105469 9.0175781 L 39.105469 17.595703 L 33.234375 21.298828 L 65.121094 21.298828 L 65.121094 13.541016 L 58.652344 18.134766 L 47.367188 18.134766 L 47.367188 14.595703 L 53.566406 14.595703 L 57.972656 16.775391 L 57.972656 9.5566406 L 53.566406 11.431641 L 47.367188 11.431641 L 47.367188 7.9394531 L 58.652344 7.9394531 L 64.652344 12.216797 L 64.652344 5.3027344 L 33.234375 5.3027344 z M 67.675781 5.3027344 L 67.136719 13.037109 L 73.265625 8.1386719 L 77.003906 8.1386719 L 77.003906 17.560547 L 71.132812 21.298828 L 91.136719 21.298828 L 85.265625 17.560547 L 85.265625 8.1386719 L 89.003906 8.1386719 L 95.132812 13.037109 L 94.59375 5.3027344 L 67.675781 5.3027344 z "
            id="path826"/>
    <text
            xml:space="preserve"
            style="font-style:normal;font-variant:normal;font-weight:normal;font-stretch:normal;font-size:14.66666698px;line-height:1.25;font-family:'Cooper Black';-inkscape-font-specification:'Cooper Black, ';letter-spacing:0px;word-spacing:0px;fill:#000000;fill-opacity:1;stroke:none"
            x="7.4246211"
            y="115.34315"
            id="text865"><tspan
     sodipodi:role="line"
     id="tspan863"
     x="7.4246211"
     y="128.57193" /></text>

    <path
            style="font-style:normal;font-variant:normal;font-weight:normal;font-stretch:normal;font-size:20.66666603px;line-height:0;font-family:'Wide Latin';-inkscape-font-specification:'Wide Latin';letter-spacing:0px;word-spacing:0px;fill:#ffffff;fill-opacity:1;stroke:none"
            d="M 46.355469 100.97656 C 42.715929 100.97656 39.581597 101.74653 36.951172 103.28711 C 34.327475 104.82096 33.015625 106.65452 33.015625 108.78711 C 33.015625 110.67079 34.336589 112.32877 36.980469 113.76172 C 39.624349 115.18793 42.692057 115.90234 46.183594 115.90234 C 49.742404 115.90234 52.813152 115.199 55.396484 113.79297 C 57.986545 112.38021 59.283203 110.70204 59.283203 108.75781 C 59.283203 106.66558 57.997612 104.84418 55.427734 103.29688 C 52.864583 101.74957 49.840277 100.97656 46.355469 100.97656 z M 3.125 101.44141 L 8.1816406 104.65039 L 8.1816406 111.99609 L 3.125 115.21484 L 17.242188 115.21484 L 12.177734 111.99609 L 12.177734 107.38477 L 20.855469 115.21484 L 27.980469 115.21484 L 27.980469 104.65039 L 33.035156 101.44141 L 18.917969 101.44141 L 23.984375 104.65039 L 23.984375 108.87891 L 15.40625 101.44141 L 3.125 101.44141 z M 58.595703 101.44141 L 62.501953 104.19531 L 67.820312 112.69336 L 64.832031 115.21484 L 78.304688 115.21484 L 75.548828 112.69336 L 78.71875 106.67773 L 82.169922 112.46094 L 78.960938 115.21484 L 92.441406 115.21484 L 89.232422 112.69336 L 93.925781 104.65039 L 98.517578 101.44141 L 87.365234 101.44141 L 90.009766 103.73242 L 86.941406 108.94922 L 83.349609 103.73242 L 86.679688 101.44141 L 72.712891 101.44141 L 75.791016 104.19531 L 72.744141 109.45312 L 69.222656 104.19531 L 72.371094 101.44141 L 58.595703 101.44141 z M 46.154297 103.35742 C 47.580512 103.35742 48.748047 103.82661 49.65625 104.76172 C 50.564453 105.69683 51.017578 106.8967 51.017578 108.36328 C 51.017578 109.83659 50.573568 111.01324 49.685547 111.89453 C 48.804254 112.77582 47.627604 113.2168 46.154297 113.2168 C 44.687717 113.2168 43.509114 112.77582 42.621094 111.89453 C 41.733073 111.0065 41.289062 109.82986 41.289062 108.36328 C 41.289062 106.88997 41.741102 105.6901 42.642578 104.76172 C 43.550781 103.82661 44.721354 103.35742 46.154297 103.35742 z "
            id="path845"/>
</svg>