<?xml version="1.0" encoding="UTF-8" standalone="no"?>
<!DOCTYPE svg PUBLIC "-//W3C//DTD SVG 1.1//EN" "http://www.w3.org/Graphics/SVG/1.1/DTD/svg11.dtd">
<svg version="1.1" xmlns="http://www.w3.org/2000/svg" xmlns:xlink="http://www.w3.org/1999/xlink"
     preserveAspectRatio="xMidYMid meet" viewBox="0 0 640 640" width="640" height="640">
    <defs>
        <path d="M2.97 635.18L3.01 517.23L636.82 517.43L636.75 635.36L2.97 635.18ZM633.67 133.86L633.82 133.87L633.97 133.89L634.12 133.93L634.27 133.95L634.39 133.98L634.54 134.03L634.67 134.07L634.82 134.12L634.95 134.18L635.08 134.23L635.21 134.3L635.34 134.35L635.47 134.42L635.57 134.51L635.68 134.58L635.79 134.65L635.89 134.74L636 134.83L636.11 134.92L636.19 135.01L636.22 135.04L115.75 140.29L114.49 142.81L113.22 145.31L112.02 147.79L110.82 150.24L109.66 152.67L108.55 155.06L107.46 157.44L106.39 159.78L105.36 162.12L104.35 164.42L103.39 166.69L102.44 168.94L101.52 171.17L100.64 173.37L99.79 175.55L98.97 177.72L98.18 179.84L97.43 181.95L96.7 184.03L96 186.08L95.33 188.12L94.69 190.13L94.07 192.11L93.49 194.06L92.95 195.99L92.44 197.91L91.95 199.81L91.5 201.67L91.07 203.49L90.66 205.3L90.3 207.09L89.98 208.87L89.65 210.6L89.4 212.32L89.14 214.01L88.93 215.67L88.75 217.3L88.58 218.94L88.48 220.51L88.37 222.09L88.28 224.43L88.22 226.82L88.2 229.24L88.2 231.66L88.26 234.13L88.35 236.63L88.48 239.15L88.65 241.7L88.86 244.27L89.14 246.86L89.44 249.48L89.8 252.12L90.19 254.78L90.64 257.46L91.15 260.17L91.69 262.88L92.31 265.61L92.95 268.38L93.66 271.15L94.43 273.93L95.25 276.73L96.12 279.55L97.07 282.39L98.05 285.22L99.12 288.08L100.24 290.93L101.42 293.8L102.66 296.69L103.97 299.58L105.34 302.47L106.77 305.38L108.29 308.29L109.86 311.19L111.51 314.1L113.24 317.03L115.02 319.93L116.88 322.86L118.83 325.78L120.83 328.69L122.93 331.62L124.36 333.55L125.82 335.45L127.3 337.33L128.82 339.17L130.36 341L131.95 342.79L133.53 344.54L135.16 346.3L136.81 348L138.5 349.68L140.22 351.33L141.95 352.96L143.71 354.56L145.51 356.14L147.33 357.68L149.17 359.2L151.06 360.69L152.96 362.16L154.89 363.6L156.84 365L158.83 366.38L160.85 367.73L162.88 369.06L164.96 370.35L167.06 371.63L169.18 372.87L171.35 374.08L173.53 375.26L175.74 376.43L177.97 377.57L180.24 378.67L182.53 379.75L184.84 380.8L187.2 381.82L189.58 382.82L191.98 383.79L194.4 384.73L196.86 385.64L199.35 386.52L201.85 387.39L204.49 388.06L207.08 388.72L209.63 389.38L212.16 390.03L214.67 390.67L217.13 391.29L219.57 391.91L221.97 392.51L224.35 393.12L226.71 393.72L229.02 394.3L231.31 394.87L233.56 395.44L235.79 395.99L238 396.54L240.16 397.07L242.3 397.6L244.4 398.13L246.48 398.63L248.52 399.14L250.53 399.62L252.52 400.12L254.47 400.58L256.4 401.04L258.29 401.5L260.15 401.95L261.97 402.39L263.77 402.81L265.55 403.24L267.28 403.65L269 404.04L270.67 404.45L272.32 404.82L273.95 405.19L275.53 405.56L277.1 405.92L278.62 406.25L280.12 406.59L281.58 406.93L283.03 407.25L284.47 407.55L286.12 407.9L287.98 408.27L290.02 408.68L292.22 409.11L294.6 409.57L297.13 410.05L299.79 410.56L302.59 411.09L305.51 411.63L308.53 412.19L311.63 412.76L314.83 413.34L318.1 413.95L321.42 414.55L324.81 415.17L328.24 415.79L331.69 416.41L335.16 417.03L338.61 417.65L342.08 418.27L345.53 418.89L348.93 419.51L352.32 420.12L355.64 420.72L358.9 421.31L362.09 421.87L365.2 422.42L368.19 422.97L371.09 423.49L373.85 424L376.51 424.48L379.01 424.94L381.35 425.36L383.53 425.77L385.55 426.14L387.37 426.48L389 426.78L390.41 427.07L391.61 427.3L393.82 427.76L396.02 428.2L398.23 428.66L400.42 429.12L402.58 429.58L404.74 430.03L406.91 430.49L409.05 430.95L411.19 431.41L413.31 431.87L415.44 432.33L417.56 432.81L419.66 433.27L421.73 433.73L423.81 434.21L425.89 434.67L427.95 435.13L430 435.61L432.04 436.09L434.07 436.55L436.09 437.03L438.1 437.51L440.1 437.99L442.09 438.47L444.08 438.94L446.05 439.42L448 439.9L449.95 440.38L451.9 440.86L453.83 441.36L455.76 441.83L457.66 442.31L459.57 442.81L461.46 443.29L463.34 443.78L465.23 444.28L467.07 444.76L468.93 445.26L470.78 445.75L472.62 446.25L473.82 446.34L475 446.46L476.15 446.6L477.29 446.78L478.42 446.98L479.54 447.19L480.63 447.44L481.7 447.7L482.75 448L483.8 448.32L484.81 448.68L485.82 449.03L486.82 449.44L487.79 449.85L488.73 450.29L489.67 450.77L490.59 451.27L491.49 451.78L492.37 452.33L493.25 452.9L494.09 453.5L494.92 454.12L495.73 454.76L496.55 455.43L497.32 456.12L498.09 456.85L498.84 457.6L499.57 458.36L500.28 459.16L500.96 459.97L501.65 460.82L502.31 461.69L502.93 462.59L503.58 463.52L504.18 464.46L504.78 465.43L505.33 466.42L505.89 467.43L506.43 468.48L506.96 469.56L507.43 470.63L507.88 471.69L508.29 472.72L508.63 473.75L508.93 474.74L509.19 475.73L509.38 476.69L509.55 477.65L509.66 478.57L509.73 479.49L509.75 480.38L509.73 481.24L509.64 482.11L509.51 482.95L509.36 483.76L509.13 484.58L508.87 485.36L508.57 486.12L508.2 486.86L507.8 487.61L507.35 488.32L506.85 489.01L506.3 489.68L505.72 490.34L505.08 490.98L504.39 491.62L503.66 492.22L502.87 492.8L502.06 493.37L501.18 493.92L500.26 494.45L499.29 494.97L498.26 495.46L497.21 495.94L496.1 496.4L494.94 496.85L493.74 497.27L492.5 497.66L491.19 498.05L489.84 498.42L636.82 498.48L636.82 499.9L3.01 499.72L3.18 138.89L633.19 133.84L633.34 133.84L633.52 133.84L633.67 133.86ZM636.82 496.4L636.82 494.45L636.9 328.12L632.34 326.58L627.84 325.08L623.38 323.6L618.97 322.15L614.6 320.73L610.27 319.35L605.99 318L601.76 316.67L597.57 315.38L593.43 314.12L589.32 312.9L585.27 311.69L581.26 310.52L577.3 309.39L573.38 308.27L569.5 307.19L565.66 306.14L561.89 305.13L558.14 304.14L554.44 303.2L550.8 302.28L547.2 301.37L543.62 300.5L540.11 299.69L536.63 298.87L533.21 298.11L529.82 297.37L526.5 296.66L523.2 295.98L519.94 295.33L516.75 294.71L513.58 294.12L510.47 293.57L507.41 293.04L504.39 292.56L501.41 292.08L498.48 291.66L495.58 291.25L492.74 290.88L489.95 290.54L489.05 290.43L488.15 290.33L487.25 290.2L486.33 290.08L485.43 289.96L484.51 289.83L483.61 289.71L482.69 289.57L481.77 289.42L480.84 289.28L479.92 289.12L479 288.96L478.08 288.82L477.14 288.64L476.22 288.48L475.27 288.32L474.35 288.15L473.41 287.97L472.47 287.79L471.53 287.6L470.58 287.42L469.64 287.23L468.7 287.03L467.75 286.83L466.81 286.62L465.85 286.43L464.9 286.21L463.96 286L463 285.79L462.06 285.58L461.09 285.35L460.15 285.13L459.18 284.9L458.22 284.67L457.28 284.44L456.31 284.19L455.35 283.96L454.39 283.71L453.44 283.48L452.48 283.24L448.97 282.31L445.45 281.36L441.96 280.36L438.47 279.35L434.97 278.31L431.5 277.24L428.05 276.16L424.61 275.05L421.2 273.93L417.81 272.78L414.45 271.62L411.13 270.47L407.83 269.3L404.57 268.13L401.38 266.94L398.21 265.76L395.1 264.59L392.04 263.4L389.04 262.23L386.11 261.08L383.21 259.91L380.41 258.77L377.64 257.64L374.99 256.54L372.37 255.44L369.87 254.37L367.42 253.31L365.07 252.3L362.8 251.31L360.63 250.33L358.55 249.41L356.58 248.51L354.7 247.66L352.94 246.82L351.27 246.06L349.73 245.32L348.29 244.62L346.96 243.99L345.76 243.4L344.71 242.85L343.43 242.14L342.19 241.29L340.96 240.32L339.81 239.23L338.69 238.03L337.64 236.73L336.66 235.35L335.76 233.86L334.97 232.32L334.26 230.69L333.66 228.99L333.19 227.25L332.84 225.44L332.63 223.6L332.57 221.74L332.65 219.82L332.91 217.91L333.36 215.97L333.98 214.02L334.79 212.09L335.8 210.16L337.02 208.24L338.48 206.37L340.17 204.5L342.1 202.68L344.26 200.92L346.71 199.2L349.41 197.54L352.38 195.96L355.66 194.43L359.22 193.02L363.1 191.69L367.29 190.45L371.82 189.31L376.66 188.28L381.84 187.38L387.39 186.62L393.3 185.98L399.58 185.48L406.24 185.13L412.95 184.97L419.36 184.99L425.48 185.2L431.31 185.59L436.84 186.14L442.13 186.85L447.12 187.7L451.88 188.69L456.38 189.81L460.64 191.05L464.65 192.38L468.42 193.81L471.98 195.34L475.32 196.95L478.45 198.62L481.36 200.36L484.08 202.13L486.59 203.95L488.94 205.8L491.11 207.66L493.08 209.54L494.92 211.42L496.57 213.3L498.09 215.14L499.46 216.97L500.68 218.76L501.78 220.48L502.74 222.16L503.6 223.78L504.35 225.3L504.97 226.75L505.5 228.1L505.95 229.34L506.32 230.48L506.6 231.47L506.81 232.34L506.94 233.05L507.03 233.61L507.07 234.02L507.05 234.25L507.09 234.27L507.22 234.23L507.45 234.11L507.78 233.92L508.18 233.63L508.72 233.28L509.34 232.83L510.05 232.32L510.86 231.74L511.78 231.06L512.79 230.32L513.9 229.48L515.1 228.58L516.41 227.6L517.8 226.54L519.3 225.41L520.91 224.2L522.6 222.91L524.38 221.52L526.29 220.07L528.26 218.55L530.36 216.95L532.54 215.27L534.81 213.49L537.19 211.67L539.68 209.73L542.25 207.75L544.93 205.67L547.69 203.51L550.56 201.3L553.54 198.97L556.6 196.6L559.75 194.13L563.03 191.58L566.37 188.97L569.84 186.26L573.38 183.5L577.04 180.64L580.79 177.7L584.63 174.69L585.61 173.92L586.62 173.14L587.62 172.34L588.67 171.55L589.72 170.73L590.77 169.92L591.87 169.08L592.96 168.23L594.07 167.36L595.21 166.49L596.37 165.61L597.52 164.72L598.72 163.82L599.92 162.9L601.14 161.97L602.36 161.03L603.63 160.08L604.89 159.12L606.18 158.14L607.46 157.15L608.79 156.16L610.12 155.15L611.47 154.12L612.84 153.09L614.23 152.05L615.63 151L617.06 149.94L618.5 148.85L619.93 147.76L621.41 146.66L622.89 145.56L624.41 144.42L625.93 143.29L627.45 142.15L629.02 140.98L630.58 139.81L632.17 138.64L633.77 137.44L635.4 136.25L636.52 135.4L636.45 135.31L636.37 135.2L636.28 135.12L636.22 135.04L637.03 135.03L636.52 135.4L636.54 135.42L636.6 135.52L636.67 135.63L636.73 135.75L636.77 135.86L636.84 135.98L636.88 136.09L636.92 136.21L636.94 136.34L636.99 136.46L637.01 136.59L637.01 136.73L637.03 136.85L637.03 136.98L636.82 494.45L636.82 496.4L636.82 498.48L636.82 498.48L636.82 498.05L636.82 496.4ZM322.84 451.02L90.64 450.95L90.62 498.3L322.82 498.37L322.84 451.02ZM3.18 121.89L3.23 3.96L637.03 4.14L636.99 122.08L3.18 121.89Z"
              id="e5Mn9eGcOB"></path>
    </defs>
    <g>
        <g>
            <g>
                <use xlink:href="#e5Mn9eGcOB" opacity="1" fill="#ae6ee8" fill-opacity="0"></use>
                <g>
                    <use xlink:href="#e5Mn9eGcOB" opacity="1" fill-opacity="0" stroke="#ffffff" stroke-width="10"
                         stroke-opacity="1"></use>
                </g>
            </g>
        </g>
    </g>
</svg>