<svg height="512" viewBox="0 0 64 64" width="512" xmlns="http://www.w3.org/2000/svg"><g id="Smartphone-Online_Consult" data-name="Smartphone-Online Consult"><path d="m61 50v-4l-3.32-.47a9.8 9.8 0 0 0 -1.09-2.62l2.02-2.69-2.83-2.83-2.69 2.02a9.8 9.8 0 0 0 -2.62-1.09l-.47-3.32h-4l-.47 3.32a9.427 9.427 0 0 0 -2.53 1.04.405.405 0 0 0 -.09.05l-2.69-2.02-2.83 2.83 2.02 2.69a9.8 9.8 0 0 0 -1.09 2.62l-3.32.47v4l3.32.47a9.8 9.8 0 0 0 1.09 2.62l-2.02 2.69 2.83 2.83 2.69-2.02a9.8 9.8 0 0 0 2.62 1.09l.47 3.32h4l.47-3.32a9.8 9.8 0 0 0 2.62-1.09l2.69 2.02 2.83-2.83-2.02-2.69a9.8 9.8 0 0 0 1.09-2.62zm-13 3a5 5 0 1 1 5-5 5 5 0 0 1 -5 5z" fill="#bddbff"/><path d="m31 41h-3a1 1 0 0 1 -1-1v-14a1 1 0 0 1 1-1h6a1 1 0 0 1 1 1v14a1 1 0 0 1 -1 1z" fill="#bddbff"/><path d="m35 3v3a1 1 0 0 1 -1 1h-8a1 1 0 0 1 -1-1v-3z" fill="#bddbff"/><path d="m33 15v2h-2-2v-2l1-4h2z" fill="#bddbff"/><path d="m18 53v8h-14v-8h1 12z" fill="#bddbff"/><g fill="#3d9ae2"><path d="m61.142 45.01-2.682-.383a10.96 10.96 0 0 0 -.678-1.639l1.624-2.166a1 1 0 0 0 -.093-1.307l-2.828-2.828a1 1 0 0 0 -1.307-.093l-2.166 1.624a11 11 0 0 0 -1.639-.678l-.383-2.682a1 1 0 0 0 -.99-.858h-4a1 1 0 0 0 -.99.858l-.383 2.682c-.212.068-.42.149-.627.23v-30.77a5.006 5.006 0 0 0 -5-5h-18a5.006 5.006 0 0 0 -5 5v10.01h-1.19a5.016 5.016 0 0 0 -4.331 2.5l-5 8.67a11.012 11.012 0 0 0 -1.479 5.5v18.32a1 1 0 0 0 -1 1v8a1 1 0 0 0 1 1h14a1 1 0 0 0 1-1v-8a1 1 0 0 0 -1-1v-.723l1.022-1.7a4.938 4.938 0 0 0 1.978.423h13a1 1 0 0 0 .858.99l2.682.383a10.96 10.96 0 0 0 .678 1.639l-1.624 2.166a1 1 0 0 0 .093 1.307l2.828 2.828a1 1 0 0 0 1.307.093l2.166-1.624a10.96 10.96 0 0 0 1.639.678l.383 2.682a1 1 0 0 0 .99.858h4a1 1 0 0 0 .99-.858l.383-2.682a11 11 0 0 0 1.639-.678l2.166 1.624a1 1 0 0 0 1.307-.093l2.828-2.828a1 1 0 0 0 .093-1.307l-1.624-2.166a10.96 10.96 0 0 0 .678-1.639l2.682-.383a1 1 0 0 0 .858-.99v-4a1 1 0 0 0 -.858-.99zm-35.142-41.01h8v2h-8zm-9 56h-12v-6h12zm.573-11.9-1.43 2.38a1 1 0 0 0 -.143.52v1h-10v-18.32a9.006 9.006 0 0 1 1.206-4.5l5.005-8.67a3.008 3.008 0 0 1 2.6-1.5h1.189v7.713l-3.38 5.856 1.732 1 4.814-8.34a2 2 0 0 1 3.467 2l-4.6 7.97a1 1 0 0 0 -.082.818l.53 1.581a9.943 9.943 0 0 1 .519 3.172v2.178a10 10 0 0 1 -1.427 5.147zm3.427-.1a2.963 2.963 0 0 1 -1.034-.19 12 12 0 0 0 1.034-4.852v-2.178a11.965 11.965 0 0 0 -.621-3.807l-.388-1.154 4.375-7.579a4 4 0 0 0 -6.366-4.74v-16.5a3 3 0 0 1 3-3h3v2a2 2 0 0 0 2 2h8a2 2 0 0 0 2-2v-2h3a3 3 0 0 1 3 3v30.477l-1.178-.883a1 1 0 0 0 -1.307.093l-2.828 2.828a1 1 0 0 0 -.093 1.307l1.624 2.166a10.96 10.96 0 0 0 -.678 1.639l-2.682.383a1 1 0 0 0 -.858.99v2zm39 1.133-2.463.352a1 1 0 0 0 -.828.743 8.892 8.892 0 0 1 -.975 2.356 1 1 0 0 0 .06 1.111l1.492 1.99-1.6 1.6-1.986-1.491a1 1 0 0 0 -1.111-.06 8.892 8.892 0 0 1 -2.356.975 1 1 0 0 0 -.743.828l-.357 2.463h-2.266l-.352-2.463a1 1 0 0 0 -.743-.828 8.892 8.892 0 0 1 -2.356-.975 1 1 0 0 0 -1.111.06l-1.99 1.492-1.6-1.6 1.492-1.99a1 1 0 0 0 .06-1.111 8.892 8.892 0 0 1 -.975-2.356 1 1 0 0 0 -.828-.743l-2.464-.353v-2.266l2.463-.352a1 1 0 0 0 .828-.743 8.892 8.892 0 0 1 .975-2.356 1 1 0 0 0 -.06-1.111l-1.492-1.99 1.6-1.6 1.99 1.492a1 1 0 0 0 1.111.06 8.892 8.892 0 0 1 2.356-.975 1 1 0 0 0 .743-.828l.353-2.464h2.266l.352 2.463a1 1 0 0 0 .743.828 8.892 8.892 0 0 1 2.356.975 1 1 0 0 0 1.111-.06l1.99-1.492 1.6 1.6-1.492 1.99a1 1 0 0 0 -.06 1.111 8.892 8.892 0 0 1 .975 2.356 1 1 0 0 0 .828.743l2.464.353z"/><path d="m48 42a6 6 0 1 0 6 6 6.006 6.006 0 0 0 -6-6zm0 10a4 4 0 1 1 4-4 4 4 0 0 1 -4 4z"/><path d="m47 38h2v2h-2z"/><path d="m40.636 40.636h2v2h-2z" transform="matrix(.707 -.707 .707 .707 -17.246 41.636)"/><path d="m38 47h2v2h-2z"/><path d="m40.636 53.364h2v2h-2z" transform="matrix(.707 -.707 .707 .707 -26.246 45.364)"/><path d="m47 56h2v2h-2z"/><path d="m53.364 53.364h2v2h-2z" transform="matrix(.707 -.707 .707 .707 -22.518 54.364)"/><path d="m56 47h2v2h-2z"/><path d="m53.364 40.636h2v2h-2z" transform="matrix(.707 -.707 .707 .707 -13.518 50.636)"/><path d="m36 40v-14a2 2 0 0 0 -2-2h-2v-6h1a1 1 0 0 0 1-1v-2a1 1 0 0 0 -.03-.243l-1-4a1 1 0 0 0 -.97-.757h-2a1 1 0 0 0 -.97.757l-1 4a1 1 0 0 0 -.03.243v2a1 1 0 0 0 1 1h1v6h-2a2 2 0 0 0 -2 2v14a2 2 0 0 0 2 2h6a2 2 0 0 0 2-2zm-6-24.877.781-3.123h.438l.781 3.123v.877h-2zm-2 10.877h6v14h-2v-11h-2v11h-2z"/></g></g></svg>