<?xml version="1.0" encoding="utf-8"?>
<!-- Generator: Adobe Illustrator 16.0.0, SVG Export Plug-In . SVG Version: 6.00 Build 0)  -->
<!DOCTYPE svg PUBLIC "-//W3C//DTD SVG 1.1//EN" "http://www.w3.org/Graphics/SVG/1.1/DTD/svg11.dtd">
<svg version="1.1" id="Layer_1" xmlns="http://www.w3.org/2000/svg" xmlns:xlink="http://www.w3.org/1999/xlink" x="0px"
	y="0px" width="236.946px" height="285.125px" viewBox="0 0 236.946 285.125"
	enable-background="new 0 0 236.946 285.125" xml:space="preserve">
	<rect y="56.659" fill="#151410" width="236.946" height="228.466" />
	<rect fill="#151410" width="236.946" height="55.022" />
	<rect x="5.418" y="61.939" fill="#FFFFFF" width="226.714" height="165.971" />
	<rect x="33.08" y="204.203" fill="#E62C37" width="86.083" height="23.702" />
	<path fill="#FDC71C" d="M119.416,97.158c0.082-9.892,8.909-15.516,28.768-15.354c8.779,0.087,18.082,2.48,24.539,5.956
	c6.465,3.48,10.179,10.991,10.08,20.108l49.315,0.106v-46.03H43.099c-6.374,11.18-9.922,24.339-10.051,39.506
	c-0.91,104.608,157.395,77.456,157.032,118.917c-0.026,2.788-0.737,5.298-2.063,7.53h44.102v-81.555
	C185.604,123.035,119.178,123.792,119.416,97.158" />
	<path fill="#FDC71C"
		d="M158.943,274.354v-0.27l0.384,0.574h-0.384h24.983l7.028-8.109c0.682-0.825,1.093-1.407,1.37-1.807
	c0.087-0.163,0.306-0.414,0.68-1.201c0.139,0.383,0.34,0.783,0.658,1.225c0.307,0.456,0.743,1.038,1.33,1.783l7.092,8.109h25.371
	l-21.909-18.052l19.232-17.811h-25.203l-4.682,5.85c-0.451,0.657-0.864,1.206-1.139,1.688c-0.301,0.438-0.544,0.887-0.751,1.294
	c-0.301-0.65-0.894-1.544-1.706-2.632c-0.144-0.182-0.213-0.269-0.269-0.35l-4.558-5.85h-25.308l19.312,17.811L158.943,274.354z" />
	<path fill="#FDC71C" d="M126.336,261.16h-0.44h-5.865l2.588-5.554c1.266-2.818,2.163-5.031,2.628-6.537
	c0.43-1.556,0.713-1.85,0.86-3.355h0.076c0.175,1.499,0.421,1.8,0.891,3.355c0.422,1.506,1.313,3.719,2.585,6.537l2.595,5.554
	H126.336z M138.632,238.796h-12.351h-0.319h-11.661l-21.735,35.432l0.134,0.431h23.421l1.889-4.473h7.952h0.319h8.106l1.975,4.473
	h23.107l0.376-0.305v-0.27L138.632,238.796z" />
	<path fill="#FDC71C" d="M71.199,274.658l-2.67-14.198c-0.166-1.092-0.346-2.187-0.506-3.255c-0.172-1.086-0.313-2.181-0.454-3.279
	c-0.224,1.023-0.584,2.118-1.056,3.279c-0.447,1.137-1.032,2.369-1.717,3.662l-7.087,13.791H44.527l-7.087-13.791
	c-0.684-1.293-1.253-2.525-1.709-3.662c-0.447-1.161-0.819-2.256-1.063-3.279c-0.134,1.099-0.274,2.193-0.44,3.279
	c-0.141,1.068-0.307,2.163-0.487,3.255l-2.695,14.198H9.297l10.551-35.855h22.87l4.376,8.893c0.147,0.274,2.32,5.048,2.62,5.6
	c0.347,0.687,1.031,2.817,1.65,4.879c0.347-1.506,1.238-3.366,1.691-4.867c0.678-1.705,1.576-3.625,2.669-5.786l4.624-8.718h22.836
	l9.584,35.175v0.376l-0.206,0.305h0.206H71.199z" />
	<polygon fill="#FBC311" points="92.488,274.354 92.572,274.228 92.488,273.978 " />
	<path fill="#FFFFFF" d="M85.139,48.217c-8.259,0-15.937-2.487-21.051-7.074c-3.867-3.468-5.73-8.186-5.73-13.041
	c0-4.787,1.938-9.536,5.73-12.998c4.749-4.33,13.148-7.036,21.051-7.036c8.75,0,15.755,2.199,21.107,7.055
	c3.808,3.456,5.646,8.179,5.646,12.979c0,4.662-1.945,9.61-5.646,13.041C101.256,45.767,93.422,48.217,85.139,48.217v-5.293
	c4.383,0,8.456-1.518,11.297-4.349c2.83-2.8,4.136-6.255,4.136-10.473c0-4.037-1.413-7.811-4.136-10.492
	c-2.81-2.762-6.971-4.312-11.297-4.312c-4.336,0-8.509,1.537-11.313,4.312c-2.71,2.681-4.13,6.462-4.13,10.492
	c0,4.024,1.441,7.798,4.13,10.473c2.804,2.793,6.965,4.349,11.313,4.349V48.217z" />
	<path fill="#FFFFFF" d="M27.888,8.086c-4.417,0-9.444,0.818-13.708,2.731c-3.941,1.755-7.165,4.598-7.165,9.311
	c-0.007,4.23,2.698,6.724,2.626,6.655c1.147,1.05,2.998,2.85,7.818,3.912c2.157,0.462,6.771,1.193,11.363,1.674
	c4.558,0.481,9.053,0.938,10.876,1.4c1.454,0.363,3.888,0.875,3.888,3.6c0,2.725-2.563,3.562-3.01,3.743
	c-0.447,0.182-3.532,1.588-9.065,1.588c-4.104,0-9.013-1.225-10.813-1.869c-2.07-0.737-4.227-1.707-6.256-4.188
	c-0.5-0.605-1.293-2.292-1.293-3.955H8.131v14.047h5.571v-1.9c0-0.212,0.274-1.099,1.216-0.674c1.157,0.531,4.576,1.886,8.149,2.63
	c2.932,0.612,4.821,1.044,8.462,1.044c5.949,0,9.144-0.957,11.344-1.594c2.083-0.588,4.655-1.663,6.743-3.325
	c1.132-0.894,3.61-3.206,3.61-7.393c0-4.018-2.157-6.505-2.919-7.267c-1.031-1.037-2.292-1.837-3.61-2.456
	c-1.147-0.538-2.958-1.194-4.43-1.55c-2.889-0.706-9.388-1.575-12.492-1.9c-3.251-0.337-8.912-0.805-11.166-1.506
	c-0.691-0.218-2.079-0.875-2.079-2.493c0-1.156,0.641-2.125,1.9-2.918c2.004-1.256,6.042-2.037,10.256-2.037
	c4.986-0.019,9.212,1.125,11.889,2.324c0.916,0.4,1.979,0.995,2.835,1.681c0.954,0.788,2.301,2.406,2.786,4.668h4.501V9.836h-5.026
	v1.424c0,0.462-0.472,1.056-1.369,0.563C42.049,10.642,35.684,8.092,27.888,8.086" />
	<path fill="#FFFFFF"
		d="M131.77,10.305l24.537,22.127l-0.251-14.898c-0.025-1.956-0.387-2.768-2.5-2.768h-4.621v-4.449h20.988v4.449
	h-4.509c-2.156,0-2.301,0.7-2.324,2.768l0.382,28.47h-7.179l-28.256-25.202l0.006,17.89c0.035,1.937,0.116,2.85,2.127,2.85h5.029
	v4.461h-20.598v-4.461h4.82c1.797,0,1.722-1.712,1.722-2.962V17.703c0-1.343-0.193-2.931-3.01-2.931h-3.904v-4.468H131.77z" />
	<path fill="#FFFFFF" d="M193.881,41.536c0.182,0,1.075-0.031,1.238-0.081c0.486-0.15,0.813-0.493,0.969-0.855
	c0.063-0.145,0.095-0.819,0.095-0.963v-7.036c0-0.168-0.014-0.25-0.3-0.625c-0.314-0.413-12.849-14.604-13.418-15.229
	c-0.714-0.775-1.963-1.981-3.864-1.981h-4.363v-4.456h24.596v4.449h-2.964c-0.675,0-1.137,0.65-0.556,1.375
	c0,0,8.277,9.898,8.353,10.004c0.083,0.1,0.149,0.125,0.251,0.031c0.104-0.1,8.482-9.936,8.546-10.029
	c0.413-0.469,0.136-1.375-0.726-1.375h-3.052v-4.456h20.157v4.456h-4.5c-1.627,0-2.303,0.306-3.528,1.693
	c-0.563,0.637-13.216,15.085-13.565,15.472c-0.182,0.2-0.17,0.5-0.17,0.669v7.036c0,0.144,0.039,0.813,0.095,0.963
	c0.162,0.356,0.486,0.706,0.969,0.855c0.168,0.05,1.037,0.075,1.23,0.075h4.609v4.455h-24.472V41.53L193.881,41.536z" />
</svg>